M48
; DRILL file {KiCad 6.0.8} date Fri 28 Oct 2022 02:07:01 PM
; FORMAT={-:-/ absolute / metric / decimal}
; #@! TF.CreationDate,2022-10-28T14:07:01-07:00
; #@! TF.GenerationSoftware,Kicad,Pcbnew,6.0.8
; #@! TF.FileFunction,Plated,1,2,PTH
FMAT,2
METRIC
; #@! TA.AperFunction,Plated,PTH,ViaDrill
T1C0.400
; #@! TA.AperFunction,Plated,PTH,ViaDrill
T2C0.500
; #@! TA.AperFunction,Plated,PTH,ComponentDrill
T3C0.600
; #@! TA.AperFunction,Plated,PTH,ComponentDrill
T4C0.750
; #@! TA.AperFunction,Plated,PTH,ComponentDrill
T5C0.800
; #@! TA.AperFunction,Plated,PTH,ComponentDrill
T6C1.100
; #@! TA.AperFunction,Plated,PTH,ComponentDrill
T7C2.750
%
G90
G05
T1
X71.192Y-128.343
X71.192Y-129.612
X97.862Y-146.123
X97.862Y-147.392
X117.547Y-146.09
X117.547Y-147.36
X145.415Y-142.24
X146.685Y-136.525
X155.762Y-141.352
X155.762Y-142.623
T2
X68.017Y-123.897
X73.733Y-126.438
X83.257Y-144.852
X85.162Y-144.852
X89.535Y-111.125
X98.498Y-148.662
X101.037Y-142.947
X102.307Y-149.933
X118.11Y-139.7
X118.182Y-148.63
X120.722Y-142.915
X141.605Y-137.795
X145.505Y-139.7
X147.955Y-119.38
X149.86Y-115.57
X154.305Y-135.255
X156.397Y-143.892
X158.75Y-135.89
T3
X61.157Y-157.542
X64.757Y-157.542
X86.938Y-158.227
X90.537Y-158.227
X97.373Y-158.188
X100.972Y-158.188
X103.807Y-87.057
X106.817Y-158.155
X107.407Y-87.057
X110.417Y-158.155
X112.697Y-87.057
X116.297Y-87.057
X116.977Y-158.155
X120.578Y-158.155
X129.822Y-158.115
X133.422Y-158.115
X137.138Y-86.995
X140.618Y-158.115
X140.738Y-86.995
X144.218Y-158.115
X146.26Y-86.995
X149.86Y-86.995
X167.64Y-109.96
X167.64Y-113.56
X167.64Y-146.79
X167.64Y-150.39
T4
X76.2Y-93.98
X76.2Y-95.25
X76.2Y-96.52
X76.2Y-100.33
X76.2Y-101.6
X76.2Y-102.87
X155.935Y-120.65
X155.935Y-121.92
X155.935Y-123.19
X155.935Y-127.0
X155.935Y-128.27
X155.935Y-129.54
T5
X50.258Y-135.317
X50.258Y-139.127
X50.258Y-149.287
X52.07Y-93.98
X54.61Y-110.49
X54.617Y-102.28
X54.703Y-144.843
X54.703Y-155.002
X57.157Y-102.28
X59.127Y-139.772
X59.127Y-142.312
X59.127Y-144.852
X59.127Y-147.392
X59.697Y-102.28
X60.417Y-135.317
X62.23Y-93.98
X62.237Y-102.28
X63.5Y-106.68
X64.77Y-110.49
X66.04Y-92.71
X66.04Y-102.87
X68.58Y-110.49
X69.287Y-139.772
X69.287Y-142.312
X69.287Y-144.852
X69.287Y-147.392
X69.307Y-152.502
X69.307Y-157.502
X71.12Y-92.71
X71.12Y-102.87
X71.828Y-135.317
X73.66Y-106.68
X74.388Y-147.382
X74.388Y-157.542
X78.177Y-123.897
X78.177Y-128.343
X78.74Y-110.49
X79.468Y-139.127
X79.468Y-149.287
X81.987Y-135.317
X83.82Y-95.25
X83.82Y-97.75
X83.82Y-104.14
X83.82Y-106.64
X84.527Y-140.407
X87.108Y-153.743
X88.337Y-123.897
X88.337Y-128.343
X92.108Y-153.743
X92.71Y-91.44
X92.71Y-101.6
X92.71Y-106.68
X92.71Y-116.84
X92.75Y-86.995
X93.417Y-123.897
X93.417Y-134.058
X94.688Y-140.407
X95.998Y-153.743
X97.75Y-86.995
X97.79Y-92.075
X97.79Y-97.79
X97.79Y-102.87
X97.79Y-113.03
X97.862Y-126.438
X97.862Y-136.597
X100.998Y-153.743
X102.307Y-123.897
X102.307Y-134.058
X102.85Y-105.42
X102.85Y-107.96
X102.85Y-110.5
X102.85Y-113.04
X104.847Y-140.375
X106.68Y-120.015
X106.712Y-153.71
X106.752Y-123.897
X106.752Y-134.058
X107.95Y-92.075
X107.95Y-97.79
X111.712Y-153.71
X111.8Y-92.075
X113.01Y-105.42
X113.01Y-107.96
X113.01Y-110.5
X113.01Y-113.04
X113.665Y-128.905
X113.665Y-136.525
X114.3Y-120.015
X115.007Y-140.375
X115.642Y-153.71
X116.8Y-92.075
X118.11Y-100.33
X118.11Y-110.49
X118.11Y-123.19
X118.11Y-128.27
X118.11Y-130.81
X118.11Y-133.35
X118.11Y-135.89
X120.642Y-153.71
X123.19Y-90.17
X123.19Y-100.33
X123.19Y-104.775
X123.19Y-114.935
X123.19Y-123.19
X123.19Y-128.27
X123.19Y-130.81
X123.19Y-133.35
X123.19Y-135.89
X124.532Y-142.312
X124.532Y-147.392
X128.343Y-127.072
X128.343Y-137.232
X129.653Y-153.67
X130.81Y-90.17
X130.81Y-100.33
X130.81Y-104.775
X130.81Y-114.935
X130.81Y-119.38
X133.985Y-127.0
X133.985Y-137.16
X134.653Y-153.67
X134.692Y-142.312
X134.692Y-147.392
X137.16Y-91.988
X137.16Y-96.988
X138.41Y-105.42
X138.41Y-107.96
X138.41Y-110.5
X138.41Y-113.04
X139.065Y-123.825
X139.065Y-133.985
X139.137Y-137.232
X139.137Y-147.392
X139.218Y-153.67
X140.97Y-119.38
X143.51Y-90.17
X143.51Y-100.33
X144.218Y-153.67
X148.57Y-105.42
X148.57Y-107.96
X148.57Y-110.5
X148.57Y-113.04
X148.59Y-151.13
X148.59Y-156.21
X149.86Y-92.115
X149.86Y-97.115
X154.305Y-90.805
X154.305Y-100.965
X154.305Y-106.68
X154.305Y-116.84
X158.75Y-151.13
X158.75Y-156.21
X160.02Y-86.995
X160.02Y-97.155
X160.02Y-100.965
X160.02Y-111.125
X161.925Y-116.205
X161.925Y-126.365
X161.925Y-132.08
X161.925Y-142.24
X167.64Y-118.11
X167.64Y-128.27
X167.64Y-132.08
X167.64Y-142.24
T6
X49.53Y-99.06
X49.53Y-106.68
X49.53Y-114.3
T7
X49.53Y-87.63
X49.53Y-158.75
X166.37Y-87.63
X166.37Y-158.75
T0
M30
