%TF.GenerationSoftware,KiCad,Pcbnew,6.0.8*%
%TF.CreationDate,2022-10-28T14:06:57-07:00*%
%TF.ProjectId,pre-amp52,7072652d-616d-4703-9532-2e6b69636164,rev?*%
%TF.SameCoordinates,Original*%
%TF.FileFunction,Soldermask,Bot*%
%TF.FilePolarity,Negative*%
%FSLAX46Y46*%
G04 Gerber Fmt 4.6, Leading zero omitted, Abs format (unit mm)*
G04 Created by KiCad (PCBNEW 6.0.8) date 2022-10-28 14:06:57*
%MOMM*%
%LPD*%
G01*
G04 APERTURE LIST*
G04 Aperture macros list*
%AMRoundRect*
0 Rectangle with rounded corners*
0 $1 Rounding radius*
0 $2 $3 $4 $5 $6 $7 $8 $9 X,Y pos of 4 corners*
0 Add a 4 corners polygon primitive as box body*
4,1,4,$2,$3,$4,$5,$6,$7,$8,$9,$2,$3,0*
0 Add four circle primitives for the rounded corners*
1,1,$1+$1,$2,$3*
1,1,$1+$1,$4,$5*
1,1,$1+$1,$6,$7*
1,1,$1+$1,$8,$9*
0 Add four rect primitives between the rounded corners*
20,1,$1+$1,$2,$3,$4,$5,0*
20,1,$1+$1,$4,$5,$6,$7,0*
20,1,$1+$1,$6,$7,$8,$9,0*
20,1,$1+$1,$8,$9,$2,$3,0*%
G04 Aperture macros list end*
%ADD10C,1.600000*%
%ADD11O,1.600000X1.600000*%
%ADD12RoundRect,0.250000X0.550000X0.550000X-0.550000X0.550000X-0.550000X-0.550000X0.550000X-0.550000X0*%
%ADD13RoundRect,0.250001X0.899999X0.899999X-0.899999X0.899999X-0.899999X-0.899999X0.899999X-0.899999X0*%
%ADD14C,6.000000*%
%ADD15R,1.600000X1.600000*%
%ADD16R,1.500000X1.050000*%
%ADD17O,1.500000X1.050000*%
%ADD18RoundRect,0.250000X0.550000X-0.550000X0.550000X0.550000X-0.550000X0.550000X-0.550000X-0.550000X0*%
%ADD19RoundRect,0.250000X-0.550000X-0.550000X0.550000X-0.550000X0.550000X0.550000X-0.550000X0.550000X0*%
%ADD20RoundRect,0.250500X-0.499500X-0.499500X0.499500X-0.499500X0.499500X0.499500X-0.499500X0.499500X0*%
%ADD21C,1.500000*%
%ADD22O,1.200000X2.000000*%
G04 APERTURE END LIST*
D10*
X92710000Y-91440000D03*
D11*
X92710000Y-101600000D03*
D12*
X120577500Y-158155000D03*
D10*
X116977500Y-158155000D03*
D13*
X49530000Y-99060000D03*
D10*
X118110000Y-110490000D03*
D11*
X118110000Y-100330000D03*
D10*
X97790000Y-92075000D03*
D11*
X107950000Y-92075000D03*
D10*
X102307500Y-123897500D03*
D11*
X102307500Y-134057500D03*
D14*
X49530000Y-158750000D03*
D10*
X167640000Y-118110000D03*
D11*
X167640000Y-128270000D03*
D10*
X115007500Y-140375000D03*
D11*
X104847500Y-140375000D03*
D10*
X133985000Y-137160000D03*
D11*
X133985000Y-127000000D03*
D14*
X166370000Y-158750000D03*
D10*
X137160000Y-96988000D03*
X137160000Y-91988000D03*
X128342500Y-137232500D03*
D11*
X128342500Y-127072500D03*
D10*
X139137500Y-147392500D03*
D11*
X139137500Y-137232500D03*
D15*
X83820000Y-104140000D03*
D10*
X83820000Y-106640000D03*
D16*
X155935000Y-129540000D03*
D17*
X155935000Y-128270000D03*
X155935000Y-127000000D03*
D15*
X59127500Y-139772500D03*
D11*
X59127500Y-142312500D03*
X59127500Y-144852500D03*
X59127500Y-147392500D03*
X69287500Y-147392500D03*
X69287500Y-144852500D03*
X69287500Y-142312500D03*
X69287500Y-139772500D03*
D10*
X130810000Y-100330000D03*
D11*
X130810000Y-90170000D03*
D18*
X167640000Y-113560000D03*
D10*
X167640000Y-109960000D03*
X154305000Y-100965000D03*
D11*
X154305000Y-90805000D03*
D10*
X120642500Y-153710000D03*
X115642500Y-153710000D03*
X52070000Y-93980000D03*
D11*
X62230000Y-93980000D03*
D19*
X106817500Y-158155000D03*
D10*
X110417500Y-158155000D03*
D19*
X103807500Y-87057500D03*
D10*
X107407500Y-87057500D03*
X143510000Y-90170000D03*
D11*
X143510000Y-100330000D03*
D10*
X88337500Y-128342500D03*
D11*
X78177500Y-128342500D03*
D19*
X129822500Y-158115000D03*
D10*
X133422500Y-158115000D03*
D20*
X118110000Y-123190000D03*
D21*
X118110000Y-128270000D03*
X118110000Y-130810000D03*
X118110000Y-133350000D03*
X118110000Y-135890000D03*
X123190000Y-135890000D03*
X123190000Y-133350000D03*
X123190000Y-130810000D03*
X123190000Y-128270000D03*
X123190000Y-123190000D03*
D10*
X106752500Y-123897500D03*
D11*
X106752500Y-134057500D03*
D13*
X49530000Y-114300000D03*
D10*
X116800000Y-92075000D03*
X111800000Y-92075000D03*
X123190000Y-90170000D03*
D11*
X123190000Y-100330000D03*
D10*
X87107500Y-153742500D03*
X92107500Y-153742500D03*
D16*
X76200000Y-100330000D03*
D17*
X76200000Y-101600000D03*
X76200000Y-102870000D03*
D18*
X167640000Y-150390000D03*
D10*
X167640000Y-146790000D03*
D14*
X49530000Y-87630000D03*
D15*
X106680000Y-120015000D03*
D11*
X114300000Y-120015000D03*
D10*
X130810000Y-114935000D03*
D11*
X130810000Y-104775000D03*
D10*
X106712500Y-153710000D03*
X111712500Y-153710000D03*
D16*
X76200000Y-96520000D03*
D17*
X76200000Y-95250000D03*
X76200000Y-93980000D03*
D10*
X68580000Y-110490000D03*
D11*
X78740000Y-110490000D03*
D10*
X160020000Y-97155000D03*
D11*
X160020000Y-86995000D03*
D10*
X92750000Y-86995000D03*
X97750000Y-86995000D03*
D13*
X49530000Y-106680000D03*
D19*
X137138000Y-86995000D03*
D10*
X140738000Y-86995000D03*
X94687500Y-140407500D03*
D11*
X84527500Y-140407500D03*
D10*
X144217500Y-153670000D03*
X139217500Y-153670000D03*
D19*
X86937500Y-158227500D03*
D10*
X90537500Y-158227500D03*
D15*
X138410000Y-105420000D03*
D11*
X138410000Y-107960000D03*
X138410000Y-110500000D03*
X138410000Y-113040000D03*
X148570000Y-113040000D03*
X148570000Y-110500000D03*
X148570000Y-107960000D03*
X148570000Y-105420000D03*
D10*
X134692500Y-142312500D03*
D11*
X124532500Y-142312500D03*
D10*
X79467500Y-149287500D03*
D11*
X79467500Y-139127500D03*
D10*
X149860000Y-97115000D03*
X149860000Y-92115000D03*
X161925000Y-116205000D03*
D11*
X161925000Y-126365000D03*
D15*
X83820000Y-95250000D03*
D10*
X83820000Y-97750000D03*
D12*
X144217500Y-158115000D03*
D10*
X140617500Y-158115000D03*
X69307500Y-157502500D03*
X69307500Y-152502500D03*
X124532500Y-147392500D03*
D11*
X134692500Y-147392500D03*
D15*
X66040000Y-92710000D03*
D11*
X66040000Y-102870000D03*
D10*
X71120000Y-92710000D03*
D11*
X71120000Y-102870000D03*
D10*
X81987500Y-135317500D03*
D11*
X71827500Y-135317500D03*
D10*
X158750000Y-151130000D03*
D11*
X148590000Y-151130000D03*
D15*
X113665000Y-128905000D03*
D11*
X113665000Y-136525000D03*
D12*
X100972500Y-158187500D03*
D10*
X97372500Y-158187500D03*
D22*
X54617500Y-102280000D03*
X57157500Y-102280000D03*
X59697500Y-102280000D03*
X62237500Y-102280000D03*
D10*
X92710000Y-116840000D03*
D11*
X92710000Y-106680000D03*
D12*
X149860000Y-86995000D03*
D10*
X146260000Y-86995000D03*
X50257500Y-149287500D03*
D11*
X50257500Y-139127500D03*
D15*
X102850000Y-105420000D03*
D11*
X102850000Y-107960000D03*
X102850000Y-110500000D03*
X102850000Y-113040000D03*
X113010000Y-113040000D03*
X113010000Y-110500000D03*
X113010000Y-107960000D03*
X113010000Y-105420000D03*
D10*
X54702500Y-155002500D03*
D11*
X54702500Y-144842500D03*
D10*
X97790000Y-113030000D03*
D11*
X97790000Y-102870000D03*
D15*
X73660000Y-106680000D03*
D11*
X63500000Y-106680000D03*
D10*
X100997500Y-153742500D03*
X95997500Y-153742500D03*
X97862500Y-126437500D03*
D11*
X97862500Y-136597500D03*
D10*
X50257500Y-135317500D03*
D11*
X60417500Y-135317500D03*
D10*
X161925000Y-142240000D03*
D11*
X161925000Y-132080000D03*
D10*
X148590000Y-156210000D03*
D11*
X158750000Y-156210000D03*
D10*
X88337500Y-123897500D03*
D11*
X78177500Y-123897500D03*
D10*
X160020000Y-111125000D03*
D11*
X160020000Y-100965000D03*
D10*
X54610000Y-110490000D03*
D11*
X64770000Y-110490000D03*
D10*
X93417500Y-123897500D03*
D11*
X93417500Y-134057500D03*
D10*
X154305000Y-106680000D03*
D11*
X154305000Y-116840000D03*
D12*
X64757500Y-157542500D03*
D10*
X61157500Y-157542500D03*
X130810000Y-119380000D03*
D11*
X140970000Y-119380000D03*
D10*
X129652500Y-153670000D03*
X134652500Y-153670000D03*
D14*
X166370000Y-87630000D03*
D10*
X123190000Y-114935000D03*
D11*
X123190000Y-104775000D03*
D10*
X107950000Y-97790000D03*
D11*
X97790000Y-97790000D03*
D16*
X155935000Y-123190000D03*
D17*
X155935000Y-121920000D03*
X155935000Y-120650000D03*
D12*
X116297500Y-87057500D03*
D10*
X112697500Y-87057500D03*
X74387500Y-157542500D03*
D11*
X74387500Y-147382500D03*
D10*
X167640000Y-142240000D03*
D11*
X167640000Y-132080000D03*
D10*
X139065000Y-123825000D03*
D11*
X139065000Y-133985000D03*
M02*
