%TF.GenerationSoftware,KiCad,Pcbnew,6.0.8*%
%TF.CreationDate,2022-10-28T14:06:57-07:00*%
%TF.ProjectId,pre-amp52,7072652d-616d-4703-9532-2e6b69636164,rev?*%
%TF.SameCoordinates,Original*%
%TF.FileFunction,Paste,Top*%
%TF.FilePolarity,Positive*%
%FSLAX46Y46*%
G04 Gerber Fmt 4.6, Leading zero omitted, Abs format (unit mm)*
G04 Created by KiCad (PCBNEW 6.0.8) date 2022-10-28 14:06:57*
%MOMM*%
%LPD*%
G01*
G04 APERTURE LIST*
G04 Aperture macros list*
%AMRoundRect*
0 Rectangle with rounded corners*
0 $1 Rounding radius*
0 $2 $3 $4 $5 $6 $7 $8 $9 X,Y pos of 4 corners*
0 Add a 4 corners polygon primitive as box body*
4,1,4,$2,$3,$4,$5,$6,$7,$8,$9,$2,$3,0*
0 Add four circle primitives for the rounded corners*
1,1,$1+$1,$2,$3*
1,1,$1+$1,$4,$5*
1,1,$1+$1,$6,$7*
1,1,$1+$1,$8,$9*
0 Add four rect primitives between the rounded corners*
20,1,$1+$1,$2,$3,$4,$5,0*
20,1,$1+$1,$4,$5,$6,$7,0*
20,1,$1+$1,$6,$7,$8,$9,0*
20,1,$1+$1,$8,$9,$2,$3,0*%
G04 Aperture macros list end*
%ADD10RoundRect,0.237500X0.300000X0.237500X-0.300000X0.237500X-0.300000X-0.237500X0.300000X-0.237500X0*%
%ADD11RoundRect,0.100000X-0.637500X-0.100000X0.637500X-0.100000X0.637500X0.100000X-0.637500X0.100000X0*%
%ADD12RoundRect,0.237500X-0.300000X-0.237500X0.300000X-0.237500X0.300000X0.237500X-0.300000X0.237500X0*%
%ADD13RoundRect,0.237500X-0.237500X0.300000X-0.237500X-0.300000X0.237500X-0.300000X0.237500X0.300000X0*%
%ADD14RoundRect,0.237500X0.237500X-0.300000X0.237500X0.300000X-0.237500X0.300000X-0.237500X-0.300000X0*%
G04 APERTURE END LIST*
D10*
X139292500Y-101600000D03*
X137567500Y-101600000D03*
D11*
X108930000Y-143815000D03*
X108930000Y-144465000D03*
X108930000Y-145115000D03*
X108930000Y-145765000D03*
X108930000Y-146415000D03*
X108930000Y-147065000D03*
X108930000Y-147715000D03*
X108930000Y-148365000D03*
X114655000Y-148365000D03*
X114655000Y-147715000D03*
X114655000Y-147065000D03*
X114655000Y-146415000D03*
X114655000Y-145765000D03*
X114655000Y-145115000D03*
X114655000Y-144465000D03*
X114655000Y-143815000D03*
D10*
X55472500Y-106680000D03*
X53747500Y-106680000D03*
X62550000Y-151192500D03*
X60825000Y-151192500D03*
D12*
X155347500Y-139493500D03*
X157072500Y-139493500D03*
D13*
X58512500Y-125565000D03*
X58512500Y-127290000D03*
D12*
X97635000Y-144217500D03*
X99360000Y-144217500D03*
D14*
X113030000Y-101827500D03*
X113030000Y-100102500D03*
D12*
X97635000Y-141677500D03*
X99360000Y-141677500D03*
D10*
X68880000Y-135962500D03*
X67155000Y-135962500D03*
X147547500Y-116840000D03*
X145822500Y-116840000D03*
D12*
X155347500Y-136953500D03*
X157072500Y-136953500D03*
X70350000Y-123252500D03*
X72075000Y-123252500D03*
X100737500Y-116840000D03*
X102462500Y-116840000D03*
X117280000Y-141645000D03*
X119005000Y-141645000D03*
D14*
X85797500Y-148255000D03*
X85797500Y-146530000D03*
D10*
X60145000Y-106680000D03*
X58420000Y-106680000D03*
D12*
X117280000Y-144185000D03*
X119005000Y-144185000D03*
D11*
X89285000Y-143847500D03*
X89285000Y-144497500D03*
X89285000Y-145147500D03*
X89285000Y-145797500D03*
X89285000Y-146447500D03*
X89285000Y-147097500D03*
X89285000Y-147747500D03*
X89285000Y-148397500D03*
X95010000Y-148397500D03*
X95010000Y-147747500D03*
X95010000Y-147097500D03*
X95010000Y-146447500D03*
X95010000Y-145797500D03*
X95010000Y-145147500D03*
X95010000Y-144497500D03*
X95010000Y-143847500D03*
D14*
X105442500Y-147815000D03*
X105442500Y-146090000D03*
D11*
X62000000Y-125422500D03*
X62000000Y-126072500D03*
X62000000Y-126722500D03*
X62000000Y-127372500D03*
X62000000Y-128022500D03*
X62000000Y-128672500D03*
X62000000Y-129322500D03*
X62000000Y-129972500D03*
X67725000Y-129972500D03*
X67725000Y-129322500D03*
X67725000Y-128672500D03*
X67725000Y-128022500D03*
X67725000Y-127372500D03*
X67725000Y-126722500D03*
X67725000Y-126072500D03*
X67725000Y-125422500D03*
D12*
X70350000Y-126020000D03*
X72075000Y-126020000D03*
D14*
X143510000Y-142896000D03*
X143510000Y-141171000D03*
D11*
X146997500Y-139123500D03*
X146997500Y-139773500D03*
X146997500Y-140423500D03*
X146997500Y-141073500D03*
X146997500Y-141723500D03*
X146997500Y-142373500D03*
X146997500Y-143023500D03*
X146997500Y-143673500D03*
X152722500Y-143673500D03*
X152722500Y-143023500D03*
X152722500Y-142373500D03*
X152722500Y-141723500D03*
X152722500Y-141073500D03*
X152722500Y-140423500D03*
X152722500Y-139773500D03*
X152722500Y-139123500D03*
M02*
