%TF.GenerationSoftware,KiCad,Pcbnew,6.0.8*%
%TF.CreationDate,2022-10-28T14:07:03-07:00*%
%TF.ProjectId,pre-amp52,7072652d-616d-4703-9532-2e6b69636164,rev?*%
%TF.SameCoordinates,Original*%
%TF.FileFunction,Drillmap*%
%TF.FilePolarity,Positive*%
%FSLAX45Y45*%
G04 Gerber Fmt 4.5, Leading zero omitted, Abs format (unit mm)*
G04 Created by KiCad (PCBNEW 6.0.8) date 2022-10-28 14:07:03*
%MOMM*%
%LPD*%
G01*
G04 APERTURE LIST*
%ADD10C,0.100000*%
%ADD11C,0.200000*%
%ADD12C,0.040000*%
%ADD13C,0.050000*%
%ADD14C,0.060000*%
%ADD15C,0.075000*%
%ADD16C,0.080000*%
%ADD17C,0.110000*%
%ADD18C,0.275000*%
G04 APERTURE END LIST*
D10*
X4572000Y-8382000D02*
X17018000Y-8382000D01*
X17018000Y-8382000D02*
X17018000Y-16256000D01*
X17018000Y-16256000D02*
X4572000Y-16256000D01*
X4572000Y-16256000D02*
X4572000Y-8382000D01*
X16510000Y-16256000D02*
X16510000Y-16256000D01*
X16510000Y-16256000D02*
X16510000Y-16256000D01*
X16510000Y-16256000D02*
X16510000Y-16256000D01*
X16510000Y-16256000D02*
X16510000Y-16256000D01*
D11*
D12*
X7099250Y-12814250D02*
X7139250Y-12854250D01*
X7139250Y-12814250D02*
X7099250Y-12854250D01*
X7099250Y-12941250D02*
X7139250Y-12981250D01*
X7139250Y-12941250D02*
X7099250Y-12981250D01*
X9766250Y-14592250D02*
X9806250Y-14632250D01*
X9806250Y-14592250D02*
X9766250Y-14632250D01*
X9766250Y-14719250D02*
X9806250Y-14759250D01*
X9806250Y-14719250D02*
X9766250Y-14759250D01*
X11734750Y-14589000D02*
X11774750Y-14629000D01*
X11774750Y-14589000D02*
X11734750Y-14629000D01*
X11734750Y-14716000D02*
X11774750Y-14756000D01*
X11774750Y-14716000D02*
X11734750Y-14756000D01*
X14521500Y-14204000D02*
X14561500Y-14244000D01*
X14561500Y-14204000D02*
X14521500Y-14244000D01*
X14648500Y-13632500D02*
X14688500Y-13672500D01*
X14688500Y-13632500D02*
X14648500Y-13672500D01*
X15556211Y-14115250D02*
X15596211Y-14155250D01*
X15596211Y-14115250D02*
X15556211Y-14155250D01*
X15556211Y-14242250D02*
X15596211Y-14282250D01*
X15596211Y-14242250D02*
X15556211Y-14282250D01*
D13*
X6826750Y-12389750D02*
G75*
G03*
X6826750Y-12389750I-25000J0D01*
G01*
X7398250Y-12643750D02*
G75*
G03*
X7398250Y-12643750I-25000J0D01*
G01*
X8350750Y-14485250D02*
G75*
G03*
X8350750Y-14485250I-25000J0D01*
G01*
X8541250Y-14485250D02*
G75*
G03*
X8541250Y-14485250I-25000J0D01*
G01*
X8978500Y-11112500D02*
G75*
G03*
X8978500Y-11112500I-25000J0D01*
G01*
X9874750Y-14866250D02*
G75*
G03*
X9874750Y-14866250I-25000J0D01*
G01*
X10128750Y-14294750D02*
G75*
G03*
X10128750Y-14294750I-25000J0D01*
G01*
X10255750Y-14993250D02*
G75*
G03*
X10255750Y-14993250I-25000J0D01*
G01*
X11836000Y-13970000D02*
G75*
G03*
X11836000Y-13970000I-25000J0D01*
G01*
X11843250Y-14863000D02*
G75*
G03*
X11843250Y-14863000I-25000J0D01*
G01*
X12097250Y-14291500D02*
G75*
G03*
X12097250Y-14291500I-25000J0D01*
G01*
X14185500Y-13779500D02*
G75*
G03*
X14185500Y-13779500I-25000J0D01*
G01*
X14575450Y-13970000D02*
G75*
G03*
X14575450Y-13970000I-25000J0D01*
G01*
X14820500Y-11938000D02*
G75*
G03*
X14820500Y-11938000I-25000J0D01*
G01*
X15011000Y-11557000D02*
G75*
G03*
X15011000Y-11557000I-25000J0D01*
G01*
X15455500Y-13525500D02*
G75*
G03*
X15455500Y-13525500I-25000J0D01*
G01*
X15664711Y-14389250D02*
G75*
G03*
X15664711Y-14389250I-25000J0D01*
G01*
X15900000Y-13589000D02*
G75*
G03*
X15900000Y-13589000I-25000J0D01*
G01*
D14*
X6115750Y-15724250D02*
X6115750Y-15784250D01*
X6085750Y-15754250D02*
X6145750Y-15754250D01*
X6475750Y-15724250D02*
X6475750Y-15784250D01*
X6445750Y-15754250D02*
X6505750Y-15754250D01*
X8693750Y-15792750D02*
X8693750Y-15852750D01*
X8663750Y-15822750D02*
X8723750Y-15822750D01*
X9053750Y-15792750D02*
X9053750Y-15852750D01*
X9023750Y-15822750D02*
X9083750Y-15822750D01*
X9737250Y-15788750D02*
X9737250Y-15848750D01*
X9707250Y-15818750D02*
X9767250Y-15818750D01*
X10097250Y-15788750D02*
X10097250Y-15848750D01*
X10067250Y-15818750D02*
X10127250Y-15818750D01*
X10380750Y-8675750D02*
X10380750Y-8735750D01*
X10350750Y-8705750D02*
X10410750Y-8705750D01*
X10681750Y-15785500D02*
X10681750Y-15845500D01*
X10651750Y-15815500D02*
X10711750Y-15815500D01*
X10740750Y-8675750D02*
X10740750Y-8735750D01*
X10710750Y-8705750D02*
X10770750Y-8705750D01*
X11041750Y-15785500D02*
X11041750Y-15845500D01*
X11011750Y-15815500D02*
X11071750Y-15815500D01*
X11269750Y-8675750D02*
X11269750Y-8735750D01*
X11239750Y-8705750D02*
X11299750Y-8705750D01*
X11629750Y-8675750D02*
X11629750Y-8735750D01*
X11599750Y-8705750D02*
X11659750Y-8705750D01*
X11697750Y-15785500D02*
X11697750Y-15845500D01*
X11667750Y-15815500D02*
X11727750Y-15815500D01*
X12057750Y-15785500D02*
X12057750Y-15845500D01*
X12027750Y-15815500D02*
X12087750Y-15815500D01*
X12982250Y-15781500D02*
X12982250Y-15841500D01*
X12952250Y-15811500D02*
X13012250Y-15811500D01*
X13342250Y-15781500D02*
X13342250Y-15841500D01*
X13312250Y-15811500D02*
X13372250Y-15811500D01*
X13713800Y-8669500D02*
X13713800Y-8729500D01*
X13683800Y-8699500D02*
X13743800Y-8699500D01*
X14061750Y-15781500D02*
X14061750Y-15841500D01*
X14031750Y-15811500D02*
X14091750Y-15811500D01*
X14073800Y-8669500D02*
X14073800Y-8729500D01*
X14043800Y-8699500D02*
X14103800Y-8699500D01*
X14421750Y-15781500D02*
X14421750Y-15841500D01*
X14391750Y-15811500D02*
X14451750Y-15811500D01*
X14626000Y-8669500D02*
X14626000Y-8729500D01*
X14596000Y-8699500D02*
X14656000Y-8699500D01*
X14986000Y-8669500D02*
X14986000Y-8729500D01*
X14956000Y-8699500D02*
X15016000Y-8699500D01*
X16764000Y-10966000D02*
X16764000Y-11026000D01*
X16734000Y-10996000D02*
X16794000Y-10996000D01*
X16764000Y-11326000D02*
X16764000Y-11386000D01*
X16734000Y-11356000D02*
X16794000Y-11356000D01*
X16764000Y-14649000D02*
X16764000Y-14709000D01*
X16734000Y-14679000D02*
X16794000Y-14679000D01*
X16764000Y-15009000D02*
X16764000Y-15069000D01*
X16734000Y-15039000D02*
X16794000Y-15039000D01*
D15*
X7646517Y-9424517D02*
X7646517Y-9371483D01*
X7593483Y-9371483D01*
X7593483Y-9424517D01*
X7646517Y-9424517D01*
X7646517Y-9551517D02*
X7646517Y-9498483D01*
X7593483Y-9498483D01*
X7593483Y-9551517D01*
X7646517Y-9551517D01*
X7646517Y-9678517D02*
X7646517Y-9625483D01*
X7593483Y-9625483D01*
X7593483Y-9678517D01*
X7646517Y-9678517D01*
X7646517Y-10059517D02*
X7646517Y-10006483D01*
X7593483Y-10006483D01*
X7593483Y-10059517D01*
X7646517Y-10059517D01*
X7646517Y-10186517D02*
X7646517Y-10133483D01*
X7593483Y-10133483D01*
X7593483Y-10186517D01*
X7646517Y-10186517D01*
X7646517Y-10313517D02*
X7646517Y-10260483D01*
X7593483Y-10260483D01*
X7593483Y-10313517D01*
X7646517Y-10313517D01*
X15620017Y-12091517D02*
X15620017Y-12038483D01*
X15566983Y-12038483D01*
X15566983Y-12091517D01*
X15620017Y-12091517D01*
X15620017Y-12218517D02*
X15620017Y-12165483D01*
X15566983Y-12165483D01*
X15566983Y-12218517D01*
X15620017Y-12218517D01*
X15620017Y-12345517D02*
X15620017Y-12292483D01*
X15566983Y-12292483D01*
X15566983Y-12345517D01*
X15620017Y-12345517D01*
X15620017Y-12726517D02*
X15620017Y-12673483D01*
X15566983Y-12673483D01*
X15566983Y-12726517D01*
X15620017Y-12726517D01*
X15620017Y-12853517D02*
X15620017Y-12800483D01*
X15566983Y-12800483D01*
X15566983Y-12853517D01*
X15620017Y-12853517D01*
X15620017Y-12980517D02*
X15620017Y-12927483D01*
X15566983Y-12927483D01*
X15566983Y-12980517D01*
X15620017Y-12980517D01*
D16*
X5025750Y-13571750D02*
X5065750Y-13531750D01*
X5025750Y-13491750D01*
X4985750Y-13531750D01*
X5025750Y-13571750D01*
X5025750Y-13952750D02*
X5065750Y-13912750D01*
X5025750Y-13872750D01*
X4985750Y-13912750D01*
X5025750Y-13952750D01*
X5025750Y-14968750D02*
X5065750Y-14928750D01*
X5025750Y-14888750D01*
X4985750Y-14928750D01*
X5025750Y-14968750D01*
X5207000Y-9438000D02*
X5247000Y-9398000D01*
X5207000Y-9358000D01*
X5167000Y-9398000D01*
X5207000Y-9438000D01*
X5461000Y-11089000D02*
X5501000Y-11049000D01*
X5461000Y-11009000D01*
X5421000Y-11049000D01*
X5461000Y-11089000D01*
X5461750Y-10268000D02*
X5501750Y-10228000D01*
X5461750Y-10188000D01*
X5421750Y-10228000D01*
X5461750Y-10268000D01*
X5470250Y-14524250D02*
X5510250Y-14484250D01*
X5470250Y-14444250D01*
X5430250Y-14484250D01*
X5470250Y-14524250D01*
X5470250Y-15540250D02*
X5510250Y-15500250D01*
X5470250Y-15460250D01*
X5430250Y-15500250D01*
X5470250Y-15540250D01*
X5715750Y-10268000D02*
X5755750Y-10228000D01*
X5715750Y-10188000D01*
X5675750Y-10228000D01*
X5715750Y-10268000D01*
X5912750Y-14017250D02*
X5952750Y-13977250D01*
X5912750Y-13937250D01*
X5872750Y-13977250D01*
X5912750Y-14017250D01*
X5912750Y-14271250D02*
X5952750Y-14231250D01*
X5912750Y-14191250D01*
X5872750Y-14231250D01*
X5912750Y-14271250D01*
X5912750Y-14525250D02*
X5952750Y-14485250D01*
X5912750Y-14445250D01*
X5872750Y-14485250D01*
X5912750Y-14525250D01*
X5912750Y-14779250D02*
X5952750Y-14739250D01*
X5912750Y-14699250D01*
X5872750Y-14739250D01*
X5912750Y-14779250D01*
X5969750Y-10268000D02*
X6009750Y-10228000D01*
X5969750Y-10188000D01*
X5929750Y-10228000D01*
X5969750Y-10268000D01*
X6041750Y-13571750D02*
X6081750Y-13531750D01*
X6041750Y-13491750D01*
X6001750Y-13531750D01*
X6041750Y-13571750D01*
X6223000Y-9438000D02*
X6263000Y-9398000D01*
X6223000Y-9358000D01*
X6183000Y-9398000D01*
X6223000Y-9438000D01*
X6223750Y-10268000D02*
X6263750Y-10228000D01*
X6223750Y-10188000D01*
X6183750Y-10228000D01*
X6223750Y-10268000D01*
X6350000Y-10708000D02*
X6390000Y-10668000D01*
X6350000Y-10628000D01*
X6310000Y-10668000D01*
X6350000Y-10708000D01*
X6477000Y-11089000D02*
X6517000Y-11049000D01*
X6477000Y-11009000D01*
X6437000Y-11049000D01*
X6477000Y-11089000D01*
X6604000Y-9311000D02*
X6644000Y-9271000D01*
X6604000Y-9231000D01*
X6564000Y-9271000D01*
X6604000Y-9311000D01*
X6604000Y-10327000D02*
X6644000Y-10287000D01*
X6604000Y-10247000D01*
X6564000Y-10287000D01*
X6604000Y-10327000D01*
X6858000Y-11089000D02*
X6898000Y-11049000D01*
X6858000Y-11009000D01*
X6818000Y-11049000D01*
X6858000Y-11089000D01*
X6928750Y-14017250D02*
X6968750Y-13977250D01*
X6928750Y-13937250D01*
X6888750Y-13977250D01*
X6928750Y-14017250D01*
X6928750Y-14271250D02*
X6968750Y-14231250D01*
X6928750Y-14191250D01*
X6888750Y-14231250D01*
X6928750Y-14271250D01*
X6928750Y-14525250D02*
X6968750Y-14485250D01*
X6928750Y-14445250D01*
X6888750Y-14485250D01*
X6928750Y-14525250D01*
X6928750Y-14779250D02*
X6968750Y-14739250D01*
X6928750Y-14699250D01*
X6888750Y-14739250D01*
X6928750Y-14779250D01*
X6930750Y-15290250D02*
X6970750Y-15250250D01*
X6930750Y-15210250D01*
X6890750Y-15250250D01*
X6930750Y-15290250D01*
X6930750Y-15790250D02*
X6970750Y-15750250D01*
X6930750Y-15710250D01*
X6890750Y-15750250D01*
X6930750Y-15790250D01*
X7112000Y-9311000D02*
X7152000Y-9271000D01*
X7112000Y-9231000D01*
X7072000Y-9271000D01*
X7112000Y-9311000D01*
X7112000Y-10327000D02*
X7152000Y-10287000D01*
X7112000Y-10247000D01*
X7072000Y-10287000D01*
X7112000Y-10327000D01*
X7182750Y-13571750D02*
X7222750Y-13531750D01*
X7182750Y-13491750D01*
X7142750Y-13531750D01*
X7182750Y-13571750D01*
X7366000Y-10708000D02*
X7406000Y-10668000D01*
X7366000Y-10628000D01*
X7326000Y-10668000D01*
X7366000Y-10708000D01*
X7438750Y-14778250D02*
X7478750Y-14738250D01*
X7438750Y-14698250D01*
X7398750Y-14738250D01*
X7438750Y-14778250D01*
X7438750Y-15794250D02*
X7478750Y-15754250D01*
X7438750Y-15714250D01*
X7398750Y-15754250D01*
X7438750Y-15794250D01*
X7817750Y-12429750D02*
X7857750Y-12389750D01*
X7817750Y-12349750D01*
X7777750Y-12389750D01*
X7817750Y-12429750D01*
X7817750Y-12874250D02*
X7857750Y-12834250D01*
X7817750Y-12794250D01*
X7777750Y-12834250D01*
X7817750Y-12874250D01*
X7874000Y-11089000D02*
X7914000Y-11049000D01*
X7874000Y-11009000D01*
X7834000Y-11049000D01*
X7874000Y-11089000D01*
X7946750Y-13952750D02*
X7986750Y-13912750D01*
X7946750Y-13872750D01*
X7906750Y-13912750D01*
X7946750Y-13952750D01*
X7946750Y-14968750D02*
X7986750Y-14928750D01*
X7946750Y-14888750D01*
X7906750Y-14928750D01*
X7946750Y-14968750D01*
X8198750Y-13571750D02*
X8238750Y-13531750D01*
X8198750Y-13491750D01*
X8158750Y-13531750D01*
X8198750Y-13571750D01*
X8382000Y-9565000D02*
X8422000Y-9525000D01*
X8382000Y-9485000D01*
X8342000Y-9525000D01*
X8382000Y-9565000D01*
X8382000Y-9815000D02*
X8422000Y-9775000D01*
X8382000Y-9735000D01*
X8342000Y-9775000D01*
X8382000Y-9815000D01*
X8382000Y-10454000D02*
X8422000Y-10414000D01*
X8382000Y-10374000D01*
X8342000Y-10414000D01*
X8382000Y-10454000D01*
X8382000Y-10704000D02*
X8422000Y-10664000D01*
X8382000Y-10624000D01*
X8342000Y-10664000D01*
X8382000Y-10704000D01*
X8452750Y-14080750D02*
X8492750Y-14040750D01*
X8452750Y-14000750D01*
X8412750Y-14040750D01*
X8452750Y-14080750D01*
X8710750Y-15414250D02*
X8750750Y-15374250D01*
X8710750Y-15334250D01*
X8670750Y-15374250D01*
X8710750Y-15414250D01*
X8833750Y-12429750D02*
X8873750Y-12389750D01*
X8833750Y-12349750D01*
X8793750Y-12389750D01*
X8833750Y-12429750D01*
X8833750Y-12874250D02*
X8873750Y-12834250D01*
X8833750Y-12794250D01*
X8793750Y-12834250D01*
X8833750Y-12874250D01*
X9210750Y-15414250D02*
X9250750Y-15374250D01*
X9210750Y-15334250D01*
X9170750Y-15374250D01*
X9210750Y-15414250D01*
X9271000Y-9184000D02*
X9311000Y-9144000D01*
X9271000Y-9104000D01*
X9231000Y-9144000D01*
X9271000Y-9184000D01*
X9271000Y-10200000D02*
X9311000Y-10160000D01*
X9271000Y-10120000D01*
X9231000Y-10160000D01*
X9271000Y-10200000D01*
X9271000Y-10708000D02*
X9311000Y-10668000D01*
X9271000Y-10628000D01*
X9231000Y-10668000D01*
X9271000Y-10708000D01*
X9271000Y-11724000D02*
X9311000Y-11684000D01*
X9271000Y-11644000D01*
X9231000Y-11684000D01*
X9271000Y-11724000D01*
X9275000Y-8739500D02*
X9315000Y-8699500D01*
X9275000Y-8659500D01*
X9235000Y-8699500D01*
X9275000Y-8739500D01*
X9341750Y-12429750D02*
X9381750Y-12389750D01*
X9341750Y-12349750D01*
X9301750Y-12389750D01*
X9341750Y-12429750D01*
X9341750Y-13445750D02*
X9381750Y-13405750D01*
X9341750Y-13365750D01*
X9301750Y-13405750D01*
X9341750Y-13445750D01*
X9468750Y-14080750D02*
X9508750Y-14040750D01*
X9468750Y-14000750D01*
X9428750Y-14040750D01*
X9468750Y-14080750D01*
X9599750Y-15414250D02*
X9639750Y-15374250D01*
X9599750Y-15334250D01*
X9559750Y-15374250D01*
X9599750Y-15414250D01*
X9775000Y-8739500D02*
X9815000Y-8699500D01*
X9775000Y-8659500D01*
X9735000Y-8699500D01*
X9775000Y-8739500D01*
X9779000Y-9247500D02*
X9819000Y-9207500D01*
X9779000Y-9167500D01*
X9739000Y-9207500D01*
X9779000Y-9247500D01*
X9779000Y-9819000D02*
X9819000Y-9779000D01*
X9779000Y-9739000D01*
X9739000Y-9779000D01*
X9779000Y-9819000D01*
X9779000Y-10327000D02*
X9819000Y-10287000D01*
X9779000Y-10247000D01*
X9739000Y-10287000D01*
X9779000Y-10327000D01*
X9779000Y-11343000D02*
X9819000Y-11303000D01*
X9779000Y-11263000D01*
X9739000Y-11303000D01*
X9779000Y-11343000D01*
X9786250Y-12683750D02*
X9826250Y-12643750D01*
X9786250Y-12603750D01*
X9746250Y-12643750D01*
X9786250Y-12683750D01*
X9786250Y-13699750D02*
X9826250Y-13659750D01*
X9786250Y-13619750D01*
X9746250Y-13659750D01*
X9786250Y-13699750D01*
X10099750Y-15414250D02*
X10139750Y-15374250D01*
X10099750Y-15334250D01*
X10059750Y-15374250D01*
X10099750Y-15414250D01*
X10230750Y-12429750D02*
X10270750Y-12389750D01*
X10230750Y-12349750D01*
X10190750Y-12389750D01*
X10230750Y-12429750D01*
X10230750Y-13445750D02*
X10270750Y-13405750D01*
X10230750Y-13365750D01*
X10190750Y-13405750D01*
X10230750Y-13445750D01*
X10285000Y-10582000D02*
X10325000Y-10542000D01*
X10285000Y-10502000D01*
X10245000Y-10542000D01*
X10285000Y-10582000D01*
X10285000Y-10836000D02*
X10325000Y-10796000D01*
X10285000Y-10756000D01*
X10245000Y-10796000D01*
X10285000Y-10836000D01*
X10285000Y-11090000D02*
X10325000Y-11050000D01*
X10285000Y-11010000D01*
X10245000Y-11050000D01*
X10285000Y-11090000D01*
X10285000Y-11344000D02*
X10325000Y-11304000D01*
X10285000Y-11264000D01*
X10245000Y-11304000D01*
X10285000Y-11344000D01*
X10484750Y-14077500D02*
X10524750Y-14037500D01*
X10484750Y-13997500D01*
X10444750Y-14037500D01*
X10484750Y-14077500D01*
X10668000Y-12041500D02*
X10708000Y-12001500D01*
X10668000Y-11961500D01*
X10628000Y-12001500D01*
X10668000Y-12041500D01*
X10671250Y-15411000D02*
X10711250Y-15371000D01*
X10671250Y-15331000D01*
X10631250Y-15371000D01*
X10671250Y-15411000D01*
X10675250Y-12429750D02*
X10715250Y-12389750D01*
X10675250Y-12349750D01*
X10635250Y-12389750D01*
X10675250Y-12429750D01*
X10675250Y-13445750D02*
X10715250Y-13405750D01*
X10675250Y-13365750D01*
X10635250Y-13405750D01*
X10675250Y-13445750D01*
X10795000Y-9247500D02*
X10835000Y-9207500D01*
X10795000Y-9167500D01*
X10755000Y-9207500D01*
X10795000Y-9247500D01*
X10795000Y-9819000D02*
X10835000Y-9779000D01*
X10795000Y-9739000D01*
X10755000Y-9779000D01*
X10795000Y-9819000D01*
X11171250Y-15411000D02*
X11211250Y-15371000D01*
X11171250Y-15331000D01*
X11131250Y-15371000D01*
X11171250Y-15411000D01*
X11180000Y-9247500D02*
X11220000Y-9207500D01*
X11180000Y-9167500D01*
X11140000Y-9207500D01*
X11180000Y-9247500D01*
X11301000Y-10582000D02*
X11341000Y-10542000D01*
X11301000Y-10502000D01*
X11261000Y-10542000D01*
X11301000Y-10582000D01*
X11301000Y-10836000D02*
X11341000Y-10796000D01*
X11301000Y-10756000D01*
X11261000Y-10796000D01*
X11301000Y-10836000D01*
X11301000Y-11090000D02*
X11341000Y-11050000D01*
X11301000Y-11010000D01*
X11261000Y-11050000D01*
X11301000Y-11090000D01*
X11301000Y-11344000D02*
X11341000Y-11304000D01*
X11301000Y-11264000D01*
X11261000Y-11304000D01*
X11301000Y-11344000D01*
X11366500Y-12930500D02*
X11406500Y-12890500D01*
X11366500Y-12850500D01*
X11326500Y-12890500D01*
X11366500Y-12930500D01*
X11366500Y-13692500D02*
X11406500Y-13652500D01*
X11366500Y-13612500D01*
X11326500Y-13652500D01*
X11366500Y-13692500D01*
X11430000Y-12041500D02*
X11470000Y-12001500D01*
X11430000Y-11961500D01*
X11390000Y-12001500D01*
X11430000Y-12041500D01*
X11500750Y-14077500D02*
X11540750Y-14037500D01*
X11500750Y-13997500D01*
X11460750Y-14037500D01*
X11500750Y-14077500D01*
X11564250Y-15411000D02*
X11604250Y-15371000D01*
X11564250Y-15331000D01*
X11524250Y-15371000D01*
X11564250Y-15411000D01*
X11680000Y-9247500D02*
X11720000Y-9207500D01*
X11680000Y-9167500D01*
X11640000Y-9207500D01*
X11680000Y-9247500D01*
X11811000Y-10073000D02*
X11851000Y-10033000D01*
X11811000Y-9993000D01*
X11771000Y-10033000D01*
X11811000Y-10073000D01*
X11811000Y-11089000D02*
X11851000Y-11049000D01*
X11811000Y-11009000D01*
X11771000Y-11049000D01*
X11811000Y-11089000D01*
X11811000Y-12359000D02*
X11851000Y-12319000D01*
X11811000Y-12279000D01*
X11771000Y-12319000D01*
X11811000Y-12359000D01*
X11811000Y-12867000D02*
X11851000Y-12827000D01*
X11811000Y-12787000D01*
X11771000Y-12827000D01*
X11811000Y-12867000D01*
X11811000Y-13121000D02*
X11851000Y-13081000D01*
X11811000Y-13041000D01*
X11771000Y-13081000D01*
X11811000Y-13121000D01*
X11811000Y-13375000D02*
X11851000Y-13335000D01*
X11811000Y-13295000D01*
X11771000Y-13335000D01*
X11811000Y-13375000D01*
X11811000Y-13629000D02*
X11851000Y-13589000D01*
X11811000Y-13549000D01*
X11771000Y-13589000D01*
X11811000Y-13629000D01*
X12064250Y-15411000D02*
X12104250Y-15371000D01*
X12064250Y-15331000D01*
X12024250Y-15371000D01*
X12064250Y-15411000D01*
X12319000Y-9057000D02*
X12359000Y-9017000D01*
X12319000Y-8977000D01*
X12279000Y-9017000D01*
X12319000Y-9057000D01*
X12319000Y-10073000D02*
X12359000Y-10033000D01*
X12319000Y-9993000D01*
X12279000Y-10033000D01*
X12319000Y-10073000D01*
X12319000Y-10517500D02*
X12359000Y-10477500D01*
X12319000Y-10437500D01*
X12279000Y-10477500D01*
X12319000Y-10517500D01*
X12319000Y-11533500D02*
X12359000Y-11493500D01*
X12319000Y-11453500D01*
X12279000Y-11493500D01*
X12319000Y-11533500D01*
X12319000Y-12359000D02*
X12359000Y-12319000D01*
X12319000Y-12279000D01*
X12279000Y-12319000D01*
X12319000Y-12359000D01*
X12319000Y-12867000D02*
X12359000Y-12827000D01*
X12319000Y-12787000D01*
X12279000Y-12827000D01*
X12319000Y-12867000D01*
X12319000Y-13121000D02*
X12359000Y-13081000D01*
X12319000Y-13041000D01*
X12279000Y-13081000D01*
X12319000Y-13121000D01*
X12319000Y-13375000D02*
X12359000Y-13335000D01*
X12319000Y-13295000D01*
X12279000Y-13335000D01*
X12319000Y-13375000D01*
X12319000Y-13629000D02*
X12359000Y-13589000D01*
X12319000Y-13549000D01*
X12279000Y-13589000D01*
X12319000Y-13629000D01*
X12453250Y-14271250D02*
X12493250Y-14231250D01*
X12453250Y-14191250D01*
X12413250Y-14231250D01*
X12453250Y-14271250D01*
X12453250Y-14779250D02*
X12493250Y-14739250D01*
X12453250Y-14699250D01*
X12413250Y-14739250D01*
X12453250Y-14779250D01*
X12834250Y-12747250D02*
X12874250Y-12707250D01*
X12834250Y-12667250D01*
X12794250Y-12707250D01*
X12834250Y-12747250D01*
X12834250Y-13763250D02*
X12874250Y-13723250D01*
X12834250Y-13683250D01*
X12794250Y-13723250D01*
X12834250Y-13763250D01*
X12965250Y-15407000D02*
X13005250Y-15367000D01*
X12965250Y-15327000D01*
X12925250Y-15367000D01*
X12965250Y-15407000D01*
X13081000Y-9057000D02*
X13121000Y-9017000D01*
X13081000Y-8977000D01*
X13041000Y-9017000D01*
X13081000Y-9057000D01*
X13081000Y-10073000D02*
X13121000Y-10033000D01*
X13081000Y-9993000D01*
X13041000Y-10033000D01*
X13081000Y-10073000D01*
X13081000Y-10517500D02*
X13121000Y-10477500D01*
X13081000Y-10437500D01*
X13041000Y-10477500D01*
X13081000Y-10517500D01*
X13081000Y-11533500D02*
X13121000Y-11493500D01*
X13081000Y-11453500D01*
X13041000Y-11493500D01*
X13081000Y-11533500D01*
X13081000Y-11978000D02*
X13121000Y-11938000D01*
X13081000Y-11898000D01*
X13041000Y-11938000D01*
X13081000Y-11978000D01*
X13398500Y-12740000D02*
X13438500Y-12700000D01*
X13398500Y-12660000D01*
X13358500Y-12700000D01*
X13398500Y-12740000D01*
X13398500Y-13756000D02*
X13438500Y-13716000D01*
X13398500Y-13676000D01*
X13358500Y-13716000D01*
X13398500Y-13756000D01*
X13465250Y-15407000D02*
X13505250Y-15367000D01*
X13465250Y-15327000D01*
X13425250Y-15367000D01*
X13465250Y-15407000D01*
X13469250Y-14271250D02*
X13509250Y-14231250D01*
X13469250Y-14191250D01*
X13429250Y-14231250D01*
X13469250Y-14271250D01*
X13469250Y-14779250D02*
X13509250Y-14739250D01*
X13469250Y-14699250D01*
X13429250Y-14739250D01*
X13469250Y-14779250D01*
X13716000Y-9238800D02*
X13756000Y-9198800D01*
X13716000Y-9158800D01*
X13676000Y-9198800D01*
X13716000Y-9238800D01*
X13716000Y-9738800D02*
X13756000Y-9698800D01*
X13716000Y-9658800D01*
X13676000Y-9698800D01*
X13716000Y-9738800D01*
X13841000Y-10582000D02*
X13881000Y-10542000D01*
X13841000Y-10502000D01*
X13801000Y-10542000D01*
X13841000Y-10582000D01*
X13841000Y-10836000D02*
X13881000Y-10796000D01*
X13841000Y-10756000D01*
X13801000Y-10796000D01*
X13841000Y-10836000D01*
X13841000Y-11090000D02*
X13881000Y-11050000D01*
X13841000Y-11010000D01*
X13801000Y-11050000D01*
X13841000Y-11090000D01*
X13841000Y-11344000D02*
X13881000Y-11304000D01*
X13841000Y-11264000D01*
X13801000Y-11304000D01*
X13841000Y-11344000D01*
X13906500Y-12422500D02*
X13946500Y-12382500D01*
X13906500Y-12342500D01*
X13866500Y-12382500D01*
X13906500Y-12422500D01*
X13906500Y-13438500D02*
X13946500Y-13398500D01*
X13906500Y-13358500D01*
X13866500Y-13398500D01*
X13906500Y-13438500D01*
X13913750Y-13763250D02*
X13953750Y-13723250D01*
X13913750Y-13683250D01*
X13873750Y-13723250D01*
X13913750Y-13763250D01*
X13913750Y-14779250D02*
X13953750Y-14739250D01*
X13913750Y-14699250D01*
X13873750Y-14739250D01*
X13913750Y-14779250D01*
X13921750Y-15407000D02*
X13961750Y-15367000D01*
X13921750Y-15327000D01*
X13881750Y-15367000D01*
X13921750Y-15407000D01*
X14097000Y-11978000D02*
X14137000Y-11938000D01*
X14097000Y-11898000D01*
X14057000Y-11938000D01*
X14097000Y-11978000D01*
X14351000Y-9057000D02*
X14391000Y-9017000D01*
X14351000Y-8977000D01*
X14311000Y-9017000D01*
X14351000Y-9057000D01*
X14351000Y-10073000D02*
X14391000Y-10033000D01*
X14351000Y-9993000D01*
X14311000Y-10033000D01*
X14351000Y-10073000D01*
X14421750Y-15407000D02*
X14461750Y-15367000D01*
X14421750Y-15327000D01*
X14381750Y-15367000D01*
X14421750Y-15407000D01*
X14857000Y-10582000D02*
X14897000Y-10542000D01*
X14857000Y-10502000D01*
X14817000Y-10542000D01*
X14857000Y-10582000D01*
X14857000Y-10836000D02*
X14897000Y-10796000D01*
X14857000Y-10756000D01*
X14817000Y-10796000D01*
X14857000Y-10836000D01*
X14857000Y-11090000D02*
X14897000Y-11050000D01*
X14857000Y-11010000D01*
X14817000Y-11050000D01*
X14857000Y-11090000D01*
X14857000Y-11344000D02*
X14897000Y-11304000D01*
X14857000Y-11264000D01*
X14817000Y-11304000D01*
X14857000Y-11344000D01*
X14859000Y-15153000D02*
X14899000Y-15113000D01*
X14859000Y-15073000D01*
X14819000Y-15113000D01*
X14859000Y-15153000D01*
X14859000Y-15661000D02*
X14899000Y-15621000D01*
X14859000Y-15581000D01*
X14819000Y-15621000D01*
X14859000Y-15661000D01*
X14986000Y-9251500D02*
X15026000Y-9211500D01*
X14986000Y-9171500D01*
X14946000Y-9211500D01*
X14986000Y-9251500D01*
X14986000Y-9751500D02*
X15026000Y-9711500D01*
X14986000Y-9671500D01*
X14946000Y-9711500D01*
X14986000Y-9751500D01*
X15430500Y-9120500D02*
X15470500Y-9080500D01*
X15430500Y-9040500D01*
X15390500Y-9080500D01*
X15430500Y-9120500D01*
X15430500Y-10136500D02*
X15470500Y-10096500D01*
X15430500Y-10056500D01*
X15390500Y-10096500D01*
X15430500Y-10136500D01*
X15430500Y-10708000D02*
X15470500Y-10668000D01*
X15430500Y-10628000D01*
X15390500Y-10668000D01*
X15430500Y-10708000D01*
X15430500Y-11724000D02*
X15470500Y-11684000D01*
X15430500Y-11644000D01*
X15390500Y-11684000D01*
X15430500Y-11724000D01*
X15875000Y-15153000D02*
X15915000Y-15113000D01*
X15875000Y-15073000D01*
X15835000Y-15113000D01*
X15875000Y-15153000D01*
X15875000Y-15661000D02*
X15915000Y-15621000D01*
X15875000Y-15581000D01*
X15835000Y-15621000D01*
X15875000Y-15661000D01*
X16002000Y-8739500D02*
X16042000Y-8699500D01*
X16002000Y-8659500D01*
X15962000Y-8699500D01*
X16002000Y-8739500D01*
X16002000Y-9755500D02*
X16042000Y-9715500D01*
X16002000Y-9675500D01*
X15962000Y-9715500D01*
X16002000Y-9755500D01*
X16002000Y-10136500D02*
X16042000Y-10096500D01*
X16002000Y-10056500D01*
X15962000Y-10096500D01*
X16002000Y-10136500D01*
X16002000Y-11152500D02*
X16042000Y-11112500D01*
X16002000Y-11072500D01*
X15962000Y-11112500D01*
X16002000Y-11152500D01*
X16192500Y-11660500D02*
X16232500Y-11620500D01*
X16192500Y-11580500D01*
X16152500Y-11620500D01*
X16192500Y-11660500D01*
X16192500Y-12676500D02*
X16232500Y-12636500D01*
X16192500Y-12596500D01*
X16152500Y-12636500D01*
X16192500Y-12676500D01*
X16192500Y-13248000D02*
X16232500Y-13208000D01*
X16192500Y-13168000D01*
X16152500Y-13208000D01*
X16192500Y-13248000D01*
X16192500Y-14264000D02*
X16232500Y-14224000D01*
X16192500Y-14184000D01*
X16152500Y-14224000D01*
X16192500Y-14264000D01*
X16764000Y-11851000D02*
X16804000Y-11811000D01*
X16764000Y-11771000D01*
X16724000Y-11811000D01*
X16764000Y-11851000D01*
X16764000Y-12867000D02*
X16804000Y-12827000D01*
X16764000Y-12787000D01*
X16724000Y-12827000D01*
X16764000Y-12867000D01*
X16764000Y-13248000D02*
X16804000Y-13208000D01*
X16764000Y-13168000D01*
X16724000Y-13208000D01*
X16764000Y-13248000D01*
X16764000Y-14264000D02*
X16804000Y-14224000D01*
X16764000Y-14184000D01*
X16724000Y-14224000D01*
X16764000Y-14264000D01*
D17*
X4898000Y-9851000D02*
X5008000Y-9961000D01*
X5008000Y-9851000D02*
X4898000Y-9961000D01*
X5008000Y-9906000D02*
G75*
G03*
X5008000Y-9906000I-55000J0D01*
G01*
X4898000Y-10613000D02*
X5008000Y-10723000D01*
X5008000Y-10613000D02*
X4898000Y-10723000D01*
X5008000Y-10668000D02*
G75*
G03*
X5008000Y-10668000I-55000J0D01*
G01*
X4898000Y-11375000D02*
X5008000Y-11485000D01*
X5008000Y-11375000D02*
X4898000Y-11485000D01*
X5008000Y-11430000D02*
G75*
G03*
X5008000Y-11430000I-55000J0D01*
G01*
D18*
X4815500Y-8625500D02*
X5090500Y-8900500D01*
X5090500Y-8625500D02*
X4815500Y-8900500D01*
X4953000Y-8625500D02*
X4953000Y-8900500D01*
X4815500Y-8763000D02*
X5090500Y-8763000D01*
X4815500Y-15737500D02*
X5090500Y-16012500D01*
X5090500Y-15737500D02*
X4815500Y-16012500D01*
X4953000Y-15737500D02*
X4953000Y-16012500D01*
X4815500Y-15875000D02*
X5090500Y-15875000D01*
X16499500Y-8625500D02*
X16774500Y-8900500D01*
X16774500Y-8625500D02*
X16499500Y-8900500D01*
X16637000Y-8625500D02*
X16637000Y-8900500D01*
X16499500Y-8763000D02*
X16774500Y-8763000D01*
X16499500Y-15737500D02*
X16774500Y-16012500D01*
X16774500Y-15737500D02*
X16499500Y-16012500D01*
X16637000Y-15737500D02*
X16637000Y-16012500D01*
X16499500Y-15875000D02*
X16774500Y-15875000D01*
D11*
X4824619Y-16571476D02*
X4824619Y-16371476D01*
X4872238Y-16371476D01*
X4900810Y-16381000D01*
X4919857Y-16400048D01*
X4929381Y-16419095D01*
X4938905Y-16457190D01*
X4938905Y-16485762D01*
X4929381Y-16523857D01*
X4919857Y-16542905D01*
X4900810Y-16561952D01*
X4872238Y-16571476D01*
X4824619Y-16571476D01*
X5024619Y-16571476D02*
X5024619Y-16438143D01*
X5024619Y-16476238D02*
X5034143Y-16457190D01*
X5043667Y-16447667D01*
X5062714Y-16438143D01*
X5081762Y-16438143D01*
X5148429Y-16571476D02*
X5148429Y-16438143D01*
X5148429Y-16371476D02*
X5138905Y-16381000D01*
X5148429Y-16390524D01*
X5157952Y-16381000D01*
X5148429Y-16371476D01*
X5148429Y-16390524D01*
X5272238Y-16571476D02*
X5253190Y-16561952D01*
X5243667Y-16542905D01*
X5243667Y-16371476D01*
X5377000Y-16571476D02*
X5357952Y-16561952D01*
X5348429Y-16542905D01*
X5348429Y-16371476D01*
X5605571Y-16571476D02*
X5605571Y-16371476D01*
X5672238Y-16514333D01*
X5738905Y-16371476D01*
X5738905Y-16571476D01*
X5919857Y-16571476D02*
X5919857Y-16466714D01*
X5910333Y-16447667D01*
X5891286Y-16438143D01*
X5853190Y-16438143D01*
X5834143Y-16447667D01*
X5919857Y-16561952D02*
X5900809Y-16571476D01*
X5853190Y-16571476D01*
X5834143Y-16561952D01*
X5824619Y-16542905D01*
X5824619Y-16523857D01*
X5834143Y-16504809D01*
X5853190Y-16495286D01*
X5900809Y-16495286D01*
X5919857Y-16485762D01*
X6015095Y-16438143D02*
X6015095Y-16638143D01*
X6015095Y-16447667D02*
X6034143Y-16438143D01*
X6072238Y-16438143D01*
X6091286Y-16447667D01*
X6100809Y-16457190D01*
X6110333Y-16476238D01*
X6110333Y-16533381D01*
X6100809Y-16552428D01*
X6091286Y-16561952D01*
X6072238Y-16571476D01*
X6034143Y-16571476D01*
X6015095Y-16561952D01*
X6196048Y-16552428D02*
X6205571Y-16561952D01*
X6196048Y-16571476D01*
X6186524Y-16561952D01*
X6196048Y-16552428D01*
X6196048Y-16571476D01*
X6196048Y-16447667D02*
X6205571Y-16457190D01*
X6196048Y-16466714D01*
X6186524Y-16457190D01*
X6196048Y-16447667D01*
X6196048Y-16466714D01*
D12*
X4527000Y-16881000D02*
X4567000Y-16921000D01*
X4567000Y-16881000D02*
X4527000Y-16921000D01*
D11*
X4862714Y-16791476D02*
X4881762Y-16791476D01*
X4900810Y-16801000D01*
X4910333Y-16810524D01*
X4919857Y-16829571D01*
X4929381Y-16867667D01*
X4929381Y-16915286D01*
X4919857Y-16953381D01*
X4910333Y-16972429D01*
X4900810Y-16981952D01*
X4881762Y-16991476D01*
X4862714Y-16991476D01*
X4843667Y-16981952D01*
X4834143Y-16972429D01*
X4824619Y-16953381D01*
X4815095Y-16915286D01*
X4815095Y-16867667D01*
X4824619Y-16829571D01*
X4834143Y-16810524D01*
X4843667Y-16801000D01*
X4862714Y-16791476D01*
X5015095Y-16972429D02*
X5024619Y-16981952D01*
X5015095Y-16991476D01*
X5005571Y-16981952D01*
X5015095Y-16972429D01*
X5015095Y-16991476D01*
X5196048Y-16858143D02*
X5196048Y-16991476D01*
X5148429Y-16781952D02*
X5100810Y-16924810D01*
X5224619Y-16924810D01*
X5338905Y-16791476D02*
X5357952Y-16791476D01*
X5377000Y-16801000D01*
X5386524Y-16810524D01*
X5396048Y-16829571D01*
X5405571Y-16867667D01*
X5405571Y-16915286D01*
X5396048Y-16953381D01*
X5386524Y-16972429D01*
X5377000Y-16981952D01*
X5357952Y-16991476D01*
X5338905Y-16991476D01*
X5319857Y-16981952D01*
X5310333Y-16972429D01*
X5300810Y-16953381D01*
X5291286Y-16915286D01*
X5291286Y-16867667D01*
X5300810Y-16829571D01*
X5310333Y-16810524D01*
X5319857Y-16801000D01*
X5338905Y-16791476D01*
X5529381Y-16791476D02*
X5548429Y-16791476D01*
X5567476Y-16801000D01*
X5577000Y-16810524D01*
X5586524Y-16829571D01*
X5596048Y-16867667D01*
X5596048Y-16915286D01*
X5586524Y-16953381D01*
X5577000Y-16972429D01*
X5567476Y-16981952D01*
X5548429Y-16991476D01*
X5529381Y-16991476D01*
X5510333Y-16981952D01*
X5500810Y-16972429D01*
X5491286Y-16953381D01*
X5481762Y-16915286D01*
X5481762Y-16867667D01*
X5491286Y-16829571D01*
X5500810Y-16810524D01*
X5510333Y-16801000D01*
X5529381Y-16791476D01*
X5681762Y-16991476D02*
X5681762Y-16858143D01*
X5681762Y-16877190D02*
X5691286Y-16867667D01*
X5710333Y-16858143D01*
X5738905Y-16858143D01*
X5757952Y-16867667D01*
X5767476Y-16886714D01*
X5767476Y-16991476D01*
X5767476Y-16886714D02*
X5777000Y-16867667D01*
X5796048Y-16858143D01*
X5824619Y-16858143D01*
X5843667Y-16867667D01*
X5853190Y-16886714D01*
X5853190Y-16991476D01*
X5948428Y-16991476D02*
X5948428Y-16858143D01*
X5948428Y-16877190D02*
X5957952Y-16867667D01*
X5977000Y-16858143D01*
X6005571Y-16858143D01*
X6024619Y-16867667D01*
X6034143Y-16886714D01*
X6034143Y-16991476D01*
X6034143Y-16886714D02*
X6043667Y-16867667D01*
X6062714Y-16858143D01*
X6091286Y-16858143D01*
X6110333Y-16867667D01*
X6119857Y-16886714D01*
X6119857Y-16991476D01*
X6510333Y-16781952D02*
X6338905Y-17039095D01*
X6767476Y-16791476D02*
X6786524Y-16791476D01*
X6805571Y-16801000D01*
X6815095Y-16810524D01*
X6824619Y-16829571D01*
X6834143Y-16867667D01*
X6834143Y-16915286D01*
X6824619Y-16953381D01*
X6815095Y-16972429D01*
X6805571Y-16981952D01*
X6786524Y-16991476D01*
X6767476Y-16991476D01*
X6748428Y-16981952D01*
X6738905Y-16972429D01*
X6729381Y-16953381D01*
X6719857Y-16915286D01*
X6719857Y-16867667D01*
X6729381Y-16829571D01*
X6738905Y-16810524D01*
X6748428Y-16801000D01*
X6767476Y-16791476D01*
X6919857Y-16972429D02*
X6929381Y-16981952D01*
X6919857Y-16991476D01*
X6910333Y-16981952D01*
X6919857Y-16972429D01*
X6919857Y-16991476D01*
X7053190Y-16791476D02*
X7072238Y-16791476D01*
X7091286Y-16801000D01*
X7100809Y-16810524D01*
X7110333Y-16829571D01*
X7119857Y-16867667D01*
X7119857Y-16915286D01*
X7110333Y-16953381D01*
X7100809Y-16972429D01*
X7091286Y-16981952D01*
X7072238Y-16991476D01*
X7053190Y-16991476D01*
X7034143Y-16981952D01*
X7024619Y-16972429D01*
X7015095Y-16953381D01*
X7005571Y-16915286D01*
X7005571Y-16867667D01*
X7015095Y-16829571D01*
X7024619Y-16810524D01*
X7034143Y-16801000D01*
X7053190Y-16791476D01*
X7310333Y-16991476D02*
X7196048Y-16991476D01*
X7253190Y-16991476D02*
X7253190Y-16791476D01*
X7234143Y-16820048D01*
X7215095Y-16839095D01*
X7196048Y-16848619D01*
X7491286Y-16791476D02*
X7396048Y-16791476D01*
X7386524Y-16886714D01*
X7396048Y-16877190D01*
X7415095Y-16867667D01*
X7462714Y-16867667D01*
X7481762Y-16877190D01*
X7491286Y-16886714D01*
X7500809Y-16905762D01*
X7500809Y-16953381D01*
X7491286Y-16972429D01*
X7481762Y-16981952D01*
X7462714Y-16991476D01*
X7415095Y-16991476D01*
X7396048Y-16981952D01*
X7386524Y-16972429D01*
X7567476Y-16791476D02*
X7700809Y-16791476D01*
X7615095Y-16991476D01*
X7767476Y-16791476D02*
X7767476Y-16829571D01*
X7843667Y-16791476D02*
X7843667Y-16829571D01*
X8138905Y-17067667D02*
X8129381Y-17058143D01*
X8110333Y-17029571D01*
X8100809Y-17010524D01*
X8091286Y-16981952D01*
X8081762Y-16934333D01*
X8081762Y-16896238D01*
X8091286Y-16848619D01*
X8100809Y-16820048D01*
X8110333Y-16801000D01*
X8129381Y-16772428D01*
X8138905Y-16762905D01*
X8319857Y-16991476D02*
X8205571Y-16991476D01*
X8262714Y-16991476D02*
X8262714Y-16791476D01*
X8243667Y-16820048D01*
X8224619Y-16839095D01*
X8205571Y-16848619D01*
X8443667Y-16791476D02*
X8462714Y-16791476D01*
X8481762Y-16801000D01*
X8491286Y-16810524D01*
X8500810Y-16829571D01*
X8510333Y-16867667D01*
X8510333Y-16915286D01*
X8500810Y-16953381D01*
X8491286Y-16972429D01*
X8481762Y-16981952D01*
X8462714Y-16991476D01*
X8443667Y-16991476D01*
X8424619Y-16981952D01*
X8415095Y-16972429D01*
X8405571Y-16953381D01*
X8396048Y-16915286D01*
X8396048Y-16867667D01*
X8405571Y-16829571D01*
X8415095Y-16810524D01*
X8424619Y-16801000D01*
X8443667Y-16791476D01*
X8748429Y-16991476D02*
X8748429Y-16791476D01*
X8834143Y-16991476D02*
X8834143Y-16886714D01*
X8824619Y-16867667D01*
X8805571Y-16858143D01*
X8777000Y-16858143D01*
X8757952Y-16867667D01*
X8748429Y-16877190D01*
X8957952Y-16991476D02*
X8938905Y-16981952D01*
X8929381Y-16972429D01*
X8919857Y-16953381D01*
X8919857Y-16896238D01*
X8929381Y-16877190D01*
X8938905Y-16867667D01*
X8957952Y-16858143D01*
X8986524Y-16858143D01*
X9005571Y-16867667D01*
X9015095Y-16877190D01*
X9024619Y-16896238D01*
X9024619Y-16953381D01*
X9015095Y-16972429D01*
X9005571Y-16981952D01*
X8986524Y-16991476D01*
X8957952Y-16991476D01*
X9138905Y-16991476D02*
X9119857Y-16981952D01*
X9110333Y-16962905D01*
X9110333Y-16791476D01*
X9291286Y-16981952D02*
X9272238Y-16991476D01*
X9234143Y-16991476D01*
X9215095Y-16981952D01*
X9205571Y-16962905D01*
X9205571Y-16886714D01*
X9215095Y-16867667D01*
X9234143Y-16858143D01*
X9272238Y-16858143D01*
X9291286Y-16867667D01*
X9300810Y-16886714D01*
X9300810Y-16905762D01*
X9205571Y-16924810D01*
X9377000Y-16981952D02*
X9396048Y-16991476D01*
X9434143Y-16991476D01*
X9453190Y-16981952D01*
X9462714Y-16962905D01*
X9462714Y-16953381D01*
X9453190Y-16934333D01*
X9434143Y-16924810D01*
X9405571Y-16924810D01*
X9386524Y-16915286D01*
X9377000Y-16896238D01*
X9377000Y-16886714D01*
X9386524Y-16867667D01*
X9405571Y-16858143D01*
X9434143Y-16858143D01*
X9453190Y-16867667D01*
X9529381Y-17067667D02*
X9538905Y-17058143D01*
X9557952Y-17029571D01*
X9567476Y-17010524D01*
X9577000Y-16981952D01*
X9586524Y-16934333D01*
X9586524Y-16896238D01*
X9577000Y-16848619D01*
X9567476Y-16820048D01*
X9557952Y-16801000D01*
X9538905Y-16772428D01*
X9529381Y-16762905D01*
D13*
X4567000Y-17165000D02*
G75*
G03*
X4567000Y-17165000I-25000J0D01*
G01*
D11*
X4862714Y-17055476D02*
X4881762Y-17055476D01*
X4900810Y-17065000D01*
X4910333Y-17074524D01*
X4919857Y-17093571D01*
X4929381Y-17131667D01*
X4929381Y-17179286D01*
X4919857Y-17217381D01*
X4910333Y-17236429D01*
X4900810Y-17245952D01*
X4881762Y-17255476D01*
X4862714Y-17255476D01*
X4843667Y-17245952D01*
X4834143Y-17236429D01*
X4824619Y-17217381D01*
X4815095Y-17179286D01*
X4815095Y-17131667D01*
X4824619Y-17093571D01*
X4834143Y-17074524D01*
X4843667Y-17065000D01*
X4862714Y-17055476D01*
X5015095Y-17236429D02*
X5024619Y-17245952D01*
X5015095Y-17255476D01*
X5005571Y-17245952D01*
X5015095Y-17236429D01*
X5015095Y-17255476D01*
X5205571Y-17055476D02*
X5110333Y-17055476D01*
X5100810Y-17150714D01*
X5110333Y-17141190D01*
X5129381Y-17131667D01*
X5177000Y-17131667D01*
X5196048Y-17141190D01*
X5205571Y-17150714D01*
X5215095Y-17169762D01*
X5215095Y-17217381D01*
X5205571Y-17236429D01*
X5196048Y-17245952D01*
X5177000Y-17255476D01*
X5129381Y-17255476D01*
X5110333Y-17245952D01*
X5100810Y-17236429D01*
X5338905Y-17055476D02*
X5357952Y-17055476D01*
X5377000Y-17065000D01*
X5386524Y-17074524D01*
X5396048Y-17093571D01*
X5405571Y-17131667D01*
X5405571Y-17179286D01*
X5396048Y-17217381D01*
X5386524Y-17236429D01*
X5377000Y-17245952D01*
X5357952Y-17255476D01*
X5338905Y-17255476D01*
X5319857Y-17245952D01*
X5310333Y-17236429D01*
X5300810Y-17217381D01*
X5291286Y-17179286D01*
X5291286Y-17131667D01*
X5300810Y-17093571D01*
X5310333Y-17074524D01*
X5319857Y-17065000D01*
X5338905Y-17055476D01*
X5529381Y-17055476D02*
X5548429Y-17055476D01*
X5567476Y-17065000D01*
X5577000Y-17074524D01*
X5586524Y-17093571D01*
X5596048Y-17131667D01*
X5596048Y-17179286D01*
X5586524Y-17217381D01*
X5577000Y-17236429D01*
X5567476Y-17245952D01*
X5548429Y-17255476D01*
X5529381Y-17255476D01*
X5510333Y-17245952D01*
X5500810Y-17236429D01*
X5491286Y-17217381D01*
X5481762Y-17179286D01*
X5481762Y-17131667D01*
X5491286Y-17093571D01*
X5500810Y-17074524D01*
X5510333Y-17065000D01*
X5529381Y-17055476D01*
X5681762Y-17255476D02*
X5681762Y-17122143D01*
X5681762Y-17141190D02*
X5691286Y-17131667D01*
X5710333Y-17122143D01*
X5738905Y-17122143D01*
X5757952Y-17131667D01*
X5767476Y-17150714D01*
X5767476Y-17255476D01*
X5767476Y-17150714D02*
X5777000Y-17131667D01*
X5796048Y-17122143D01*
X5824619Y-17122143D01*
X5843667Y-17131667D01*
X5853190Y-17150714D01*
X5853190Y-17255476D01*
X5948428Y-17255476D02*
X5948428Y-17122143D01*
X5948428Y-17141190D02*
X5957952Y-17131667D01*
X5977000Y-17122143D01*
X6005571Y-17122143D01*
X6024619Y-17131667D01*
X6034143Y-17150714D01*
X6034143Y-17255476D01*
X6034143Y-17150714D02*
X6043667Y-17131667D01*
X6062714Y-17122143D01*
X6091286Y-17122143D01*
X6110333Y-17131667D01*
X6119857Y-17150714D01*
X6119857Y-17255476D01*
X6510333Y-17045952D02*
X6338905Y-17303095D01*
X6767476Y-17055476D02*
X6786524Y-17055476D01*
X6805571Y-17065000D01*
X6815095Y-17074524D01*
X6824619Y-17093571D01*
X6834143Y-17131667D01*
X6834143Y-17179286D01*
X6824619Y-17217381D01*
X6815095Y-17236429D01*
X6805571Y-17245952D01*
X6786524Y-17255476D01*
X6767476Y-17255476D01*
X6748428Y-17245952D01*
X6738905Y-17236429D01*
X6729381Y-17217381D01*
X6719857Y-17179286D01*
X6719857Y-17131667D01*
X6729381Y-17093571D01*
X6738905Y-17074524D01*
X6748428Y-17065000D01*
X6767476Y-17055476D01*
X6919857Y-17236429D02*
X6929381Y-17245952D01*
X6919857Y-17255476D01*
X6910333Y-17245952D01*
X6919857Y-17236429D01*
X6919857Y-17255476D01*
X7053190Y-17055476D02*
X7072238Y-17055476D01*
X7091286Y-17065000D01*
X7100809Y-17074524D01*
X7110333Y-17093571D01*
X7119857Y-17131667D01*
X7119857Y-17179286D01*
X7110333Y-17217381D01*
X7100809Y-17236429D01*
X7091286Y-17245952D01*
X7072238Y-17255476D01*
X7053190Y-17255476D01*
X7034143Y-17245952D01*
X7024619Y-17236429D01*
X7015095Y-17217381D01*
X7005571Y-17179286D01*
X7005571Y-17131667D01*
X7015095Y-17093571D01*
X7024619Y-17074524D01*
X7034143Y-17065000D01*
X7053190Y-17055476D01*
X7310333Y-17255476D02*
X7196048Y-17255476D01*
X7253190Y-17255476D02*
X7253190Y-17055476D01*
X7234143Y-17084048D01*
X7215095Y-17103095D01*
X7196048Y-17112619D01*
X7405571Y-17255476D02*
X7443667Y-17255476D01*
X7462714Y-17245952D01*
X7472238Y-17236429D01*
X7491286Y-17207857D01*
X7500809Y-17169762D01*
X7500809Y-17093571D01*
X7491286Y-17074524D01*
X7481762Y-17065000D01*
X7462714Y-17055476D01*
X7424619Y-17055476D01*
X7405571Y-17065000D01*
X7396048Y-17074524D01*
X7386524Y-17093571D01*
X7386524Y-17141190D01*
X7396048Y-17160238D01*
X7405571Y-17169762D01*
X7424619Y-17179286D01*
X7462714Y-17179286D01*
X7481762Y-17169762D01*
X7491286Y-17160238D01*
X7500809Y-17141190D01*
X7567476Y-17055476D02*
X7700809Y-17055476D01*
X7615095Y-17255476D01*
X7767476Y-17055476D02*
X7767476Y-17093571D01*
X7843667Y-17055476D02*
X7843667Y-17093571D01*
X8138905Y-17331667D02*
X8129381Y-17322143D01*
X8110333Y-17293571D01*
X8100809Y-17274524D01*
X8091286Y-17245952D01*
X8081762Y-17198333D01*
X8081762Y-17160238D01*
X8091286Y-17112619D01*
X8100809Y-17084048D01*
X8110333Y-17065000D01*
X8129381Y-17036429D01*
X8138905Y-17026905D01*
X8319857Y-17255476D02*
X8205571Y-17255476D01*
X8262714Y-17255476D02*
X8262714Y-17055476D01*
X8243667Y-17084048D01*
X8224619Y-17103095D01*
X8205571Y-17112619D01*
X8434143Y-17141190D02*
X8415095Y-17131667D01*
X8405571Y-17122143D01*
X8396048Y-17103095D01*
X8396048Y-17093571D01*
X8405571Y-17074524D01*
X8415095Y-17065000D01*
X8434143Y-17055476D01*
X8472238Y-17055476D01*
X8491286Y-17065000D01*
X8500810Y-17074524D01*
X8510333Y-17093571D01*
X8510333Y-17103095D01*
X8500810Y-17122143D01*
X8491286Y-17131667D01*
X8472238Y-17141190D01*
X8434143Y-17141190D01*
X8415095Y-17150714D01*
X8405571Y-17160238D01*
X8396048Y-17179286D01*
X8396048Y-17217381D01*
X8405571Y-17236429D01*
X8415095Y-17245952D01*
X8434143Y-17255476D01*
X8472238Y-17255476D01*
X8491286Y-17245952D01*
X8500810Y-17236429D01*
X8510333Y-17217381D01*
X8510333Y-17179286D01*
X8500810Y-17160238D01*
X8491286Y-17150714D01*
X8472238Y-17141190D01*
X8748429Y-17255476D02*
X8748429Y-17055476D01*
X8834143Y-17255476D02*
X8834143Y-17150714D01*
X8824619Y-17131667D01*
X8805571Y-17122143D01*
X8777000Y-17122143D01*
X8757952Y-17131667D01*
X8748429Y-17141190D01*
X8957952Y-17255476D02*
X8938905Y-17245952D01*
X8929381Y-17236429D01*
X8919857Y-17217381D01*
X8919857Y-17160238D01*
X8929381Y-17141190D01*
X8938905Y-17131667D01*
X8957952Y-17122143D01*
X8986524Y-17122143D01*
X9005571Y-17131667D01*
X9015095Y-17141190D01*
X9024619Y-17160238D01*
X9024619Y-17217381D01*
X9015095Y-17236429D01*
X9005571Y-17245952D01*
X8986524Y-17255476D01*
X8957952Y-17255476D01*
X9138905Y-17255476D02*
X9119857Y-17245952D01*
X9110333Y-17226905D01*
X9110333Y-17055476D01*
X9291286Y-17245952D02*
X9272238Y-17255476D01*
X9234143Y-17255476D01*
X9215095Y-17245952D01*
X9205571Y-17226905D01*
X9205571Y-17150714D01*
X9215095Y-17131667D01*
X9234143Y-17122143D01*
X9272238Y-17122143D01*
X9291286Y-17131667D01*
X9300810Y-17150714D01*
X9300810Y-17169762D01*
X9205571Y-17188810D01*
X9377000Y-17245952D02*
X9396048Y-17255476D01*
X9434143Y-17255476D01*
X9453190Y-17245952D01*
X9462714Y-17226905D01*
X9462714Y-17217381D01*
X9453190Y-17198333D01*
X9434143Y-17188810D01*
X9405571Y-17188810D01*
X9386524Y-17179286D01*
X9377000Y-17160238D01*
X9377000Y-17150714D01*
X9386524Y-17131667D01*
X9405571Y-17122143D01*
X9434143Y-17122143D01*
X9453190Y-17131667D01*
X9529381Y-17331667D02*
X9538905Y-17322143D01*
X9557952Y-17293571D01*
X9567476Y-17274524D01*
X9577000Y-17245952D01*
X9586524Y-17198333D01*
X9586524Y-17160238D01*
X9577000Y-17112619D01*
X9567476Y-17084048D01*
X9557952Y-17065000D01*
X9538905Y-17036429D01*
X9529381Y-17026905D01*
D14*
X4537000Y-17399000D02*
X4537000Y-17459000D01*
X4507000Y-17429000D02*
X4567000Y-17429000D01*
D11*
X4862714Y-17319476D02*
X4881762Y-17319476D01*
X4900810Y-17329000D01*
X4910333Y-17338524D01*
X4919857Y-17357571D01*
X4929381Y-17395667D01*
X4929381Y-17443286D01*
X4919857Y-17481381D01*
X4910333Y-17500429D01*
X4900810Y-17509952D01*
X4881762Y-17519476D01*
X4862714Y-17519476D01*
X4843667Y-17509952D01*
X4834143Y-17500429D01*
X4824619Y-17481381D01*
X4815095Y-17443286D01*
X4815095Y-17395667D01*
X4824619Y-17357571D01*
X4834143Y-17338524D01*
X4843667Y-17329000D01*
X4862714Y-17319476D01*
X5015095Y-17500429D02*
X5024619Y-17509952D01*
X5015095Y-17519476D01*
X5005571Y-17509952D01*
X5015095Y-17500429D01*
X5015095Y-17519476D01*
X5196048Y-17319476D02*
X5157952Y-17319476D01*
X5138905Y-17329000D01*
X5129381Y-17338524D01*
X5110333Y-17367095D01*
X5100810Y-17405190D01*
X5100810Y-17481381D01*
X5110333Y-17500429D01*
X5119857Y-17509952D01*
X5138905Y-17519476D01*
X5177000Y-17519476D01*
X5196048Y-17509952D01*
X5205571Y-17500429D01*
X5215095Y-17481381D01*
X5215095Y-17433762D01*
X5205571Y-17414714D01*
X5196048Y-17405190D01*
X5177000Y-17395667D01*
X5138905Y-17395667D01*
X5119857Y-17405190D01*
X5110333Y-17414714D01*
X5100810Y-17433762D01*
X5338905Y-17319476D02*
X5357952Y-17319476D01*
X5377000Y-17329000D01*
X5386524Y-17338524D01*
X5396048Y-17357571D01*
X5405571Y-17395667D01*
X5405571Y-17443286D01*
X5396048Y-17481381D01*
X5386524Y-17500429D01*
X5377000Y-17509952D01*
X5357952Y-17519476D01*
X5338905Y-17519476D01*
X5319857Y-17509952D01*
X5310333Y-17500429D01*
X5300810Y-17481381D01*
X5291286Y-17443286D01*
X5291286Y-17395667D01*
X5300810Y-17357571D01*
X5310333Y-17338524D01*
X5319857Y-17329000D01*
X5338905Y-17319476D01*
X5529381Y-17319476D02*
X5548429Y-17319476D01*
X5567476Y-17329000D01*
X5577000Y-17338524D01*
X5586524Y-17357571D01*
X5596048Y-17395667D01*
X5596048Y-17443286D01*
X5586524Y-17481381D01*
X5577000Y-17500429D01*
X5567476Y-17509952D01*
X5548429Y-17519476D01*
X5529381Y-17519476D01*
X5510333Y-17509952D01*
X5500810Y-17500429D01*
X5491286Y-17481381D01*
X5481762Y-17443286D01*
X5481762Y-17395667D01*
X5491286Y-17357571D01*
X5500810Y-17338524D01*
X5510333Y-17329000D01*
X5529381Y-17319476D01*
X5681762Y-17519476D02*
X5681762Y-17386143D01*
X5681762Y-17405190D02*
X5691286Y-17395667D01*
X5710333Y-17386143D01*
X5738905Y-17386143D01*
X5757952Y-17395667D01*
X5767476Y-17414714D01*
X5767476Y-17519476D01*
X5767476Y-17414714D02*
X5777000Y-17395667D01*
X5796048Y-17386143D01*
X5824619Y-17386143D01*
X5843667Y-17395667D01*
X5853190Y-17414714D01*
X5853190Y-17519476D01*
X5948428Y-17519476D02*
X5948428Y-17386143D01*
X5948428Y-17405190D02*
X5957952Y-17395667D01*
X5977000Y-17386143D01*
X6005571Y-17386143D01*
X6024619Y-17395667D01*
X6034143Y-17414714D01*
X6034143Y-17519476D01*
X6034143Y-17414714D02*
X6043667Y-17395667D01*
X6062714Y-17386143D01*
X6091286Y-17386143D01*
X6110333Y-17395667D01*
X6119857Y-17414714D01*
X6119857Y-17519476D01*
X6510333Y-17309952D02*
X6338905Y-17567095D01*
X6767476Y-17319476D02*
X6786524Y-17319476D01*
X6805571Y-17329000D01*
X6815095Y-17338524D01*
X6824619Y-17357571D01*
X6834143Y-17395667D01*
X6834143Y-17443286D01*
X6824619Y-17481381D01*
X6815095Y-17500429D01*
X6805571Y-17509952D01*
X6786524Y-17519476D01*
X6767476Y-17519476D01*
X6748428Y-17509952D01*
X6738905Y-17500429D01*
X6729381Y-17481381D01*
X6719857Y-17443286D01*
X6719857Y-17395667D01*
X6729381Y-17357571D01*
X6738905Y-17338524D01*
X6748428Y-17329000D01*
X6767476Y-17319476D01*
X6919857Y-17500429D02*
X6929381Y-17509952D01*
X6919857Y-17519476D01*
X6910333Y-17509952D01*
X6919857Y-17500429D01*
X6919857Y-17519476D01*
X7053190Y-17319476D02*
X7072238Y-17319476D01*
X7091286Y-17329000D01*
X7100809Y-17338524D01*
X7110333Y-17357571D01*
X7119857Y-17395667D01*
X7119857Y-17443286D01*
X7110333Y-17481381D01*
X7100809Y-17500429D01*
X7091286Y-17509952D01*
X7072238Y-17519476D01*
X7053190Y-17519476D01*
X7034143Y-17509952D01*
X7024619Y-17500429D01*
X7015095Y-17481381D01*
X7005571Y-17443286D01*
X7005571Y-17395667D01*
X7015095Y-17357571D01*
X7024619Y-17338524D01*
X7034143Y-17329000D01*
X7053190Y-17319476D01*
X7196048Y-17338524D02*
X7205571Y-17329000D01*
X7224619Y-17319476D01*
X7272238Y-17319476D01*
X7291286Y-17329000D01*
X7300809Y-17338524D01*
X7310333Y-17357571D01*
X7310333Y-17376619D01*
X7300809Y-17405190D01*
X7186524Y-17519476D01*
X7310333Y-17519476D01*
X7377000Y-17319476D02*
X7500809Y-17319476D01*
X7434143Y-17395667D01*
X7462714Y-17395667D01*
X7481762Y-17405190D01*
X7491286Y-17414714D01*
X7500809Y-17433762D01*
X7500809Y-17481381D01*
X7491286Y-17500429D01*
X7481762Y-17509952D01*
X7462714Y-17519476D01*
X7405571Y-17519476D01*
X7386524Y-17509952D01*
X7377000Y-17500429D01*
X7672238Y-17319476D02*
X7634143Y-17319476D01*
X7615095Y-17329000D01*
X7605571Y-17338524D01*
X7586524Y-17367095D01*
X7577000Y-17405190D01*
X7577000Y-17481381D01*
X7586524Y-17500429D01*
X7596048Y-17509952D01*
X7615095Y-17519476D01*
X7653190Y-17519476D01*
X7672238Y-17509952D01*
X7681762Y-17500429D01*
X7691286Y-17481381D01*
X7691286Y-17433762D01*
X7681762Y-17414714D01*
X7672238Y-17405190D01*
X7653190Y-17395667D01*
X7615095Y-17395667D01*
X7596048Y-17405190D01*
X7586524Y-17414714D01*
X7577000Y-17433762D01*
X7767476Y-17319476D02*
X7767476Y-17357571D01*
X7843667Y-17319476D02*
X7843667Y-17357571D01*
X8138905Y-17595667D02*
X8129381Y-17586143D01*
X8110333Y-17557571D01*
X8100809Y-17538524D01*
X8091286Y-17509952D01*
X8081762Y-17462333D01*
X8081762Y-17424238D01*
X8091286Y-17376619D01*
X8100809Y-17348048D01*
X8110333Y-17329000D01*
X8129381Y-17300429D01*
X8138905Y-17290905D01*
X8205571Y-17338524D02*
X8215095Y-17329000D01*
X8234143Y-17319476D01*
X8281762Y-17319476D01*
X8300809Y-17329000D01*
X8310333Y-17338524D01*
X8319857Y-17357571D01*
X8319857Y-17376619D01*
X8310333Y-17405190D01*
X8196048Y-17519476D01*
X8319857Y-17519476D01*
X8491286Y-17319476D02*
X8453190Y-17319476D01*
X8434143Y-17329000D01*
X8424619Y-17338524D01*
X8405571Y-17367095D01*
X8396048Y-17405190D01*
X8396048Y-17481381D01*
X8405571Y-17500429D01*
X8415095Y-17509952D01*
X8434143Y-17519476D01*
X8472238Y-17519476D01*
X8491286Y-17509952D01*
X8500810Y-17500429D01*
X8510333Y-17481381D01*
X8510333Y-17433762D01*
X8500810Y-17414714D01*
X8491286Y-17405190D01*
X8472238Y-17395667D01*
X8434143Y-17395667D01*
X8415095Y-17405190D01*
X8405571Y-17414714D01*
X8396048Y-17433762D01*
X8748429Y-17519476D02*
X8748429Y-17319476D01*
X8834143Y-17519476D02*
X8834143Y-17414714D01*
X8824619Y-17395667D01*
X8805571Y-17386143D01*
X8777000Y-17386143D01*
X8757952Y-17395667D01*
X8748429Y-17405190D01*
X8957952Y-17519476D02*
X8938905Y-17509952D01*
X8929381Y-17500429D01*
X8919857Y-17481381D01*
X8919857Y-17424238D01*
X8929381Y-17405190D01*
X8938905Y-17395667D01*
X8957952Y-17386143D01*
X8986524Y-17386143D01*
X9005571Y-17395667D01*
X9015095Y-17405190D01*
X9024619Y-17424238D01*
X9024619Y-17481381D01*
X9015095Y-17500429D01*
X9005571Y-17509952D01*
X8986524Y-17519476D01*
X8957952Y-17519476D01*
X9138905Y-17519476D02*
X9119857Y-17509952D01*
X9110333Y-17490905D01*
X9110333Y-17319476D01*
X9291286Y-17509952D02*
X9272238Y-17519476D01*
X9234143Y-17519476D01*
X9215095Y-17509952D01*
X9205571Y-17490905D01*
X9205571Y-17414714D01*
X9215095Y-17395667D01*
X9234143Y-17386143D01*
X9272238Y-17386143D01*
X9291286Y-17395667D01*
X9300810Y-17414714D01*
X9300810Y-17433762D01*
X9205571Y-17452810D01*
X9377000Y-17509952D02*
X9396048Y-17519476D01*
X9434143Y-17519476D01*
X9453190Y-17509952D01*
X9462714Y-17490905D01*
X9462714Y-17481381D01*
X9453190Y-17462333D01*
X9434143Y-17452810D01*
X9405571Y-17452810D01*
X9386524Y-17443286D01*
X9377000Y-17424238D01*
X9377000Y-17414714D01*
X9386524Y-17395667D01*
X9405571Y-17386143D01*
X9434143Y-17386143D01*
X9453190Y-17395667D01*
X9529381Y-17595667D02*
X9538905Y-17586143D01*
X9557952Y-17557571D01*
X9567476Y-17538524D01*
X9577000Y-17509952D01*
X9586524Y-17462333D01*
X9586524Y-17424238D01*
X9577000Y-17376619D01*
X9567476Y-17348048D01*
X9557952Y-17329000D01*
X9538905Y-17300429D01*
X9529381Y-17290905D01*
D15*
X4556017Y-17719517D02*
X4556017Y-17666483D01*
X4502983Y-17666483D01*
X4502983Y-17719517D01*
X4556017Y-17719517D01*
D11*
X4862714Y-17583476D02*
X4881762Y-17583476D01*
X4900810Y-17593000D01*
X4910333Y-17602524D01*
X4919857Y-17621571D01*
X4929381Y-17659667D01*
X4929381Y-17707286D01*
X4919857Y-17745381D01*
X4910333Y-17764429D01*
X4900810Y-17773952D01*
X4881762Y-17783476D01*
X4862714Y-17783476D01*
X4843667Y-17773952D01*
X4834143Y-17764429D01*
X4824619Y-17745381D01*
X4815095Y-17707286D01*
X4815095Y-17659667D01*
X4824619Y-17621571D01*
X4834143Y-17602524D01*
X4843667Y-17593000D01*
X4862714Y-17583476D01*
X5015095Y-17764429D02*
X5024619Y-17773952D01*
X5015095Y-17783476D01*
X5005571Y-17773952D01*
X5015095Y-17764429D01*
X5015095Y-17783476D01*
X5091286Y-17583476D02*
X5224619Y-17583476D01*
X5138905Y-17783476D01*
X5396048Y-17583476D02*
X5300810Y-17583476D01*
X5291286Y-17678714D01*
X5300810Y-17669190D01*
X5319857Y-17659667D01*
X5367476Y-17659667D01*
X5386524Y-17669190D01*
X5396048Y-17678714D01*
X5405571Y-17697762D01*
X5405571Y-17745381D01*
X5396048Y-17764429D01*
X5386524Y-17773952D01*
X5367476Y-17783476D01*
X5319857Y-17783476D01*
X5300810Y-17773952D01*
X5291286Y-17764429D01*
X5529381Y-17583476D02*
X5548429Y-17583476D01*
X5567476Y-17593000D01*
X5577000Y-17602524D01*
X5586524Y-17621571D01*
X5596048Y-17659667D01*
X5596048Y-17707286D01*
X5586524Y-17745381D01*
X5577000Y-17764429D01*
X5567476Y-17773952D01*
X5548429Y-17783476D01*
X5529381Y-17783476D01*
X5510333Y-17773952D01*
X5500810Y-17764429D01*
X5491286Y-17745381D01*
X5481762Y-17707286D01*
X5481762Y-17659667D01*
X5491286Y-17621571D01*
X5500810Y-17602524D01*
X5510333Y-17593000D01*
X5529381Y-17583476D01*
X5681762Y-17783476D02*
X5681762Y-17650143D01*
X5681762Y-17669190D02*
X5691286Y-17659667D01*
X5710333Y-17650143D01*
X5738905Y-17650143D01*
X5757952Y-17659667D01*
X5767476Y-17678714D01*
X5767476Y-17783476D01*
X5767476Y-17678714D02*
X5777000Y-17659667D01*
X5796048Y-17650143D01*
X5824619Y-17650143D01*
X5843667Y-17659667D01*
X5853190Y-17678714D01*
X5853190Y-17783476D01*
X5948428Y-17783476D02*
X5948428Y-17650143D01*
X5948428Y-17669190D02*
X5957952Y-17659667D01*
X5977000Y-17650143D01*
X6005571Y-17650143D01*
X6024619Y-17659667D01*
X6034143Y-17678714D01*
X6034143Y-17783476D01*
X6034143Y-17678714D02*
X6043667Y-17659667D01*
X6062714Y-17650143D01*
X6091286Y-17650143D01*
X6110333Y-17659667D01*
X6119857Y-17678714D01*
X6119857Y-17783476D01*
X6510333Y-17573952D02*
X6338905Y-17831095D01*
X6767476Y-17583476D02*
X6786524Y-17583476D01*
X6805571Y-17593000D01*
X6815095Y-17602524D01*
X6824619Y-17621571D01*
X6834143Y-17659667D01*
X6834143Y-17707286D01*
X6824619Y-17745381D01*
X6815095Y-17764429D01*
X6805571Y-17773952D01*
X6786524Y-17783476D01*
X6767476Y-17783476D01*
X6748428Y-17773952D01*
X6738905Y-17764429D01*
X6729381Y-17745381D01*
X6719857Y-17707286D01*
X6719857Y-17659667D01*
X6729381Y-17621571D01*
X6738905Y-17602524D01*
X6748428Y-17593000D01*
X6767476Y-17583476D01*
X6919857Y-17764429D02*
X6929381Y-17773952D01*
X6919857Y-17783476D01*
X6910333Y-17773952D01*
X6919857Y-17764429D01*
X6919857Y-17783476D01*
X7053190Y-17583476D02*
X7072238Y-17583476D01*
X7091286Y-17593000D01*
X7100809Y-17602524D01*
X7110333Y-17621571D01*
X7119857Y-17659667D01*
X7119857Y-17707286D01*
X7110333Y-17745381D01*
X7100809Y-17764429D01*
X7091286Y-17773952D01*
X7072238Y-17783476D01*
X7053190Y-17783476D01*
X7034143Y-17773952D01*
X7024619Y-17764429D01*
X7015095Y-17745381D01*
X7005571Y-17707286D01*
X7005571Y-17659667D01*
X7015095Y-17621571D01*
X7024619Y-17602524D01*
X7034143Y-17593000D01*
X7053190Y-17583476D01*
X7196048Y-17602524D02*
X7205571Y-17593000D01*
X7224619Y-17583476D01*
X7272238Y-17583476D01*
X7291286Y-17593000D01*
X7300809Y-17602524D01*
X7310333Y-17621571D01*
X7310333Y-17640619D01*
X7300809Y-17669190D01*
X7186524Y-17783476D01*
X7310333Y-17783476D01*
X7405571Y-17783476D02*
X7443667Y-17783476D01*
X7462714Y-17773952D01*
X7472238Y-17764429D01*
X7491286Y-17735857D01*
X7500809Y-17697762D01*
X7500809Y-17621571D01*
X7491286Y-17602524D01*
X7481762Y-17593000D01*
X7462714Y-17583476D01*
X7424619Y-17583476D01*
X7405571Y-17593000D01*
X7396048Y-17602524D01*
X7386524Y-17621571D01*
X7386524Y-17669190D01*
X7396048Y-17688238D01*
X7405571Y-17697762D01*
X7424619Y-17707286D01*
X7462714Y-17707286D01*
X7481762Y-17697762D01*
X7491286Y-17688238D01*
X7500809Y-17669190D01*
X7681762Y-17583476D02*
X7586524Y-17583476D01*
X7577000Y-17678714D01*
X7586524Y-17669190D01*
X7605571Y-17659667D01*
X7653190Y-17659667D01*
X7672238Y-17669190D01*
X7681762Y-17678714D01*
X7691286Y-17697762D01*
X7691286Y-17745381D01*
X7681762Y-17764429D01*
X7672238Y-17773952D01*
X7653190Y-17783476D01*
X7605571Y-17783476D01*
X7586524Y-17773952D01*
X7577000Y-17764429D01*
X7767476Y-17583476D02*
X7767476Y-17621571D01*
X7843667Y-17583476D02*
X7843667Y-17621571D01*
X8138905Y-17859667D02*
X8129381Y-17850143D01*
X8110333Y-17821571D01*
X8100809Y-17802524D01*
X8091286Y-17773952D01*
X8081762Y-17726333D01*
X8081762Y-17688238D01*
X8091286Y-17640619D01*
X8100809Y-17612048D01*
X8110333Y-17593000D01*
X8129381Y-17564429D01*
X8138905Y-17554905D01*
X8319857Y-17783476D02*
X8205571Y-17783476D01*
X8262714Y-17783476D02*
X8262714Y-17583476D01*
X8243667Y-17612048D01*
X8224619Y-17631095D01*
X8205571Y-17640619D01*
X8396048Y-17602524D02*
X8405571Y-17593000D01*
X8424619Y-17583476D01*
X8472238Y-17583476D01*
X8491286Y-17593000D01*
X8500810Y-17602524D01*
X8510333Y-17621571D01*
X8510333Y-17640619D01*
X8500810Y-17669190D01*
X8386524Y-17783476D01*
X8510333Y-17783476D01*
X8748429Y-17783476D02*
X8748429Y-17583476D01*
X8834143Y-17783476D02*
X8834143Y-17678714D01*
X8824619Y-17659667D01*
X8805571Y-17650143D01*
X8777000Y-17650143D01*
X8757952Y-17659667D01*
X8748429Y-17669190D01*
X8957952Y-17783476D02*
X8938905Y-17773952D01*
X8929381Y-17764429D01*
X8919857Y-17745381D01*
X8919857Y-17688238D01*
X8929381Y-17669190D01*
X8938905Y-17659667D01*
X8957952Y-17650143D01*
X8986524Y-17650143D01*
X9005571Y-17659667D01*
X9015095Y-17669190D01*
X9024619Y-17688238D01*
X9024619Y-17745381D01*
X9015095Y-17764429D01*
X9005571Y-17773952D01*
X8986524Y-17783476D01*
X8957952Y-17783476D01*
X9138905Y-17783476D02*
X9119857Y-17773952D01*
X9110333Y-17754905D01*
X9110333Y-17583476D01*
X9291286Y-17773952D02*
X9272238Y-17783476D01*
X9234143Y-17783476D01*
X9215095Y-17773952D01*
X9205571Y-17754905D01*
X9205571Y-17678714D01*
X9215095Y-17659667D01*
X9234143Y-17650143D01*
X9272238Y-17650143D01*
X9291286Y-17659667D01*
X9300810Y-17678714D01*
X9300810Y-17697762D01*
X9205571Y-17716810D01*
X9377000Y-17773952D02*
X9396048Y-17783476D01*
X9434143Y-17783476D01*
X9453190Y-17773952D01*
X9462714Y-17754905D01*
X9462714Y-17745381D01*
X9453190Y-17726333D01*
X9434143Y-17716810D01*
X9405571Y-17716810D01*
X9386524Y-17707286D01*
X9377000Y-17688238D01*
X9377000Y-17678714D01*
X9386524Y-17659667D01*
X9405571Y-17650143D01*
X9434143Y-17650143D01*
X9453190Y-17659667D01*
X9529381Y-17859667D02*
X9538905Y-17850143D01*
X9557952Y-17821571D01*
X9567476Y-17802524D01*
X9577000Y-17773952D01*
X9586524Y-17726333D01*
X9586524Y-17688238D01*
X9577000Y-17640619D01*
X9567476Y-17612048D01*
X9557952Y-17593000D01*
X9538905Y-17564429D01*
X9529381Y-17554905D01*
D16*
X4527000Y-17997000D02*
X4567000Y-17957000D01*
X4527000Y-17917000D01*
X4487000Y-17957000D01*
X4527000Y-17997000D01*
D11*
X4862714Y-17847476D02*
X4881762Y-17847476D01*
X4900810Y-17857000D01*
X4910333Y-17866524D01*
X4919857Y-17885571D01*
X4929381Y-17923667D01*
X4929381Y-17971286D01*
X4919857Y-18009381D01*
X4910333Y-18028429D01*
X4900810Y-18037952D01*
X4881762Y-18047476D01*
X4862714Y-18047476D01*
X4843667Y-18037952D01*
X4834143Y-18028429D01*
X4824619Y-18009381D01*
X4815095Y-17971286D01*
X4815095Y-17923667D01*
X4824619Y-17885571D01*
X4834143Y-17866524D01*
X4843667Y-17857000D01*
X4862714Y-17847476D01*
X5015095Y-18028429D02*
X5024619Y-18037952D01*
X5015095Y-18047476D01*
X5005571Y-18037952D01*
X5015095Y-18028429D01*
X5015095Y-18047476D01*
X5138905Y-17933190D02*
X5119857Y-17923667D01*
X5110333Y-17914143D01*
X5100810Y-17895095D01*
X5100810Y-17885571D01*
X5110333Y-17866524D01*
X5119857Y-17857000D01*
X5138905Y-17847476D01*
X5177000Y-17847476D01*
X5196048Y-17857000D01*
X5205571Y-17866524D01*
X5215095Y-17885571D01*
X5215095Y-17895095D01*
X5205571Y-17914143D01*
X5196048Y-17923667D01*
X5177000Y-17933190D01*
X5138905Y-17933190D01*
X5119857Y-17942714D01*
X5110333Y-17952238D01*
X5100810Y-17971286D01*
X5100810Y-18009381D01*
X5110333Y-18028429D01*
X5119857Y-18037952D01*
X5138905Y-18047476D01*
X5177000Y-18047476D01*
X5196048Y-18037952D01*
X5205571Y-18028429D01*
X5215095Y-18009381D01*
X5215095Y-17971286D01*
X5205571Y-17952238D01*
X5196048Y-17942714D01*
X5177000Y-17933190D01*
X5338905Y-17847476D02*
X5357952Y-17847476D01*
X5377000Y-17857000D01*
X5386524Y-17866524D01*
X5396048Y-17885571D01*
X5405571Y-17923667D01*
X5405571Y-17971286D01*
X5396048Y-18009381D01*
X5386524Y-18028429D01*
X5377000Y-18037952D01*
X5357952Y-18047476D01*
X5338905Y-18047476D01*
X5319857Y-18037952D01*
X5310333Y-18028429D01*
X5300810Y-18009381D01*
X5291286Y-17971286D01*
X5291286Y-17923667D01*
X5300810Y-17885571D01*
X5310333Y-17866524D01*
X5319857Y-17857000D01*
X5338905Y-17847476D01*
X5529381Y-17847476D02*
X5548429Y-17847476D01*
X5567476Y-17857000D01*
X5577000Y-17866524D01*
X5586524Y-17885571D01*
X5596048Y-17923667D01*
X5596048Y-17971286D01*
X5586524Y-18009381D01*
X5577000Y-18028429D01*
X5567476Y-18037952D01*
X5548429Y-18047476D01*
X5529381Y-18047476D01*
X5510333Y-18037952D01*
X5500810Y-18028429D01*
X5491286Y-18009381D01*
X5481762Y-17971286D01*
X5481762Y-17923667D01*
X5491286Y-17885571D01*
X5500810Y-17866524D01*
X5510333Y-17857000D01*
X5529381Y-17847476D01*
X5681762Y-18047476D02*
X5681762Y-17914143D01*
X5681762Y-17933190D02*
X5691286Y-17923667D01*
X5710333Y-17914143D01*
X5738905Y-17914143D01*
X5757952Y-17923667D01*
X5767476Y-17942714D01*
X5767476Y-18047476D01*
X5767476Y-17942714D02*
X5777000Y-17923667D01*
X5796048Y-17914143D01*
X5824619Y-17914143D01*
X5843667Y-17923667D01*
X5853190Y-17942714D01*
X5853190Y-18047476D01*
X5948428Y-18047476D02*
X5948428Y-17914143D01*
X5948428Y-17933190D02*
X5957952Y-17923667D01*
X5977000Y-17914143D01*
X6005571Y-17914143D01*
X6024619Y-17923667D01*
X6034143Y-17942714D01*
X6034143Y-18047476D01*
X6034143Y-17942714D02*
X6043667Y-17923667D01*
X6062714Y-17914143D01*
X6091286Y-17914143D01*
X6110333Y-17923667D01*
X6119857Y-17942714D01*
X6119857Y-18047476D01*
X6510333Y-17837952D02*
X6338905Y-18095095D01*
X6767476Y-17847476D02*
X6786524Y-17847476D01*
X6805571Y-17857000D01*
X6815095Y-17866524D01*
X6824619Y-17885571D01*
X6834143Y-17923667D01*
X6834143Y-17971286D01*
X6824619Y-18009381D01*
X6815095Y-18028429D01*
X6805571Y-18037952D01*
X6786524Y-18047476D01*
X6767476Y-18047476D01*
X6748428Y-18037952D01*
X6738905Y-18028429D01*
X6729381Y-18009381D01*
X6719857Y-17971286D01*
X6719857Y-17923667D01*
X6729381Y-17885571D01*
X6738905Y-17866524D01*
X6748428Y-17857000D01*
X6767476Y-17847476D01*
X6919857Y-18028429D02*
X6929381Y-18037952D01*
X6919857Y-18047476D01*
X6910333Y-18037952D01*
X6919857Y-18028429D01*
X6919857Y-18047476D01*
X7053190Y-17847476D02*
X7072238Y-17847476D01*
X7091286Y-17857000D01*
X7100809Y-17866524D01*
X7110333Y-17885571D01*
X7119857Y-17923667D01*
X7119857Y-17971286D01*
X7110333Y-18009381D01*
X7100809Y-18028429D01*
X7091286Y-18037952D01*
X7072238Y-18047476D01*
X7053190Y-18047476D01*
X7034143Y-18037952D01*
X7024619Y-18028429D01*
X7015095Y-18009381D01*
X7005571Y-17971286D01*
X7005571Y-17923667D01*
X7015095Y-17885571D01*
X7024619Y-17866524D01*
X7034143Y-17857000D01*
X7053190Y-17847476D01*
X7186524Y-17847476D02*
X7310333Y-17847476D01*
X7243667Y-17923667D01*
X7272238Y-17923667D01*
X7291286Y-17933190D01*
X7300809Y-17942714D01*
X7310333Y-17961762D01*
X7310333Y-18009381D01*
X7300809Y-18028429D01*
X7291286Y-18037952D01*
X7272238Y-18047476D01*
X7215095Y-18047476D01*
X7196048Y-18037952D01*
X7186524Y-18028429D01*
X7500809Y-18047476D02*
X7386524Y-18047476D01*
X7443667Y-18047476D02*
X7443667Y-17847476D01*
X7424619Y-17876048D01*
X7405571Y-17895095D01*
X7386524Y-17904619D01*
X7681762Y-17847476D02*
X7586524Y-17847476D01*
X7577000Y-17942714D01*
X7586524Y-17933190D01*
X7605571Y-17923667D01*
X7653190Y-17923667D01*
X7672238Y-17933190D01*
X7681762Y-17942714D01*
X7691286Y-17961762D01*
X7691286Y-18009381D01*
X7681762Y-18028429D01*
X7672238Y-18037952D01*
X7653190Y-18047476D01*
X7605571Y-18047476D01*
X7586524Y-18037952D01*
X7577000Y-18028429D01*
X7767476Y-17847476D02*
X7767476Y-17885571D01*
X7843667Y-17847476D02*
X7843667Y-17885571D01*
X8138905Y-18123667D02*
X8129381Y-18114143D01*
X8110333Y-18085571D01*
X8100809Y-18066524D01*
X8091286Y-18037952D01*
X8081762Y-17990333D01*
X8081762Y-17952238D01*
X8091286Y-17904619D01*
X8100809Y-17876048D01*
X8110333Y-17857000D01*
X8129381Y-17828429D01*
X8138905Y-17818905D01*
X8319857Y-18047476D02*
X8205571Y-18047476D01*
X8262714Y-18047476D02*
X8262714Y-17847476D01*
X8243667Y-17876048D01*
X8224619Y-17895095D01*
X8205571Y-17904619D01*
X8491286Y-17847476D02*
X8453190Y-17847476D01*
X8434143Y-17857000D01*
X8424619Y-17866524D01*
X8405571Y-17895095D01*
X8396048Y-17933190D01*
X8396048Y-18009381D01*
X8405571Y-18028429D01*
X8415095Y-18037952D01*
X8434143Y-18047476D01*
X8472238Y-18047476D01*
X8491286Y-18037952D01*
X8500810Y-18028429D01*
X8510333Y-18009381D01*
X8510333Y-17961762D01*
X8500810Y-17942714D01*
X8491286Y-17933190D01*
X8472238Y-17923667D01*
X8434143Y-17923667D01*
X8415095Y-17933190D01*
X8405571Y-17942714D01*
X8396048Y-17961762D01*
X8681762Y-17914143D02*
X8681762Y-18047476D01*
X8634143Y-17837952D02*
X8586524Y-17980810D01*
X8710333Y-17980810D01*
X8938905Y-18047476D02*
X8938905Y-17847476D01*
X9024619Y-18047476D02*
X9024619Y-17942714D01*
X9015095Y-17923667D01*
X8996048Y-17914143D01*
X8967476Y-17914143D01*
X8948429Y-17923667D01*
X8938905Y-17933190D01*
X9148429Y-18047476D02*
X9129381Y-18037952D01*
X9119857Y-18028429D01*
X9110333Y-18009381D01*
X9110333Y-17952238D01*
X9119857Y-17933190D01*
X9129381Y-17923667D01*
X9148429Y-17914143D01*
X9177000Y-17914143D01*
X9196048Y-17923667D01*
X9205571Y-17933190D01*
X9215095Y-17952238D01*
X9215095Y-18009381D01*
X9205571Y-18028429D01*
X9196048Y-18037952D01*
X9177000Y-18047476D01*
X9148429Y-18047476D01*
X9329381Y-18047476D02*
X9310333Y-18037952D01*
X9300810Y-18018905D01*
X9300810Y-17847476D01*
X9481762Y-18037952D02*
X9462714Y-18047476D01*
X9424619Y-18047476D01*
X9405571Y-18037952D01*
X9396048Y-18018905D01*
X9396048Y-17942714D01*
X9405571Y-17923667D01*
X9424619Y-17914143D01*
X9462714Y-17914143D01*
X9481762Y-17923667D01*
X9491286Y-17942714D01*
X9491286Y-17961762D01*
X9396048Y-17980810D01*
X9567476Y-18037952D02*
X9586524Y-18047476D01*
X9624619Y-18047476D01*
X9643667Y-18037952D01*
X9653190Y-18018905D01*
X9653190Y-18009381D01*
X9643667Y-17990333D01*
X9624619Y-17980810D01*
X9596048Y-17980810D01*
X9577000Y-17971286D01*
X9567476Y-17952238D01*
X9567476Y-17942714D01*
X9577000Y-17923667D01*
X9596048Y-17914143D01*
X9624619Y-17914143D01*
X9643667Y-17923667D01*
X9719857Y-18123667D02*
X9729381Y-18114143D01*
X9748429Y-18085571D01*
X9757952Y-18066524D01*
X9767476Y-18037952D01*
X9777000Y-17990333D01*
X9777000Y-17952238D01*
X9767476Y-17904619D01*
X9757952Y-17876048D01*
X9748429Y-17857000D01*
X9729381Y-17828429D01*
X9719857Y-17818905D01*
D17*
X4457000Y-18166000D02*
X4567000Y-18276000D01*
X4567000Y-18166000D02*
X4457000Y-18276000D01*
X4567000Y-18221000D02*
G75*
G03*
X4567000Y-18221000I-55000J0D01*
G01*
D11*
X4929381Y-18311476D02*
X4815095Y-18311476D01*
X4872238Y-18311476D02*
X4872238Y-18111476D01*
X4853190Y-18140048D01*
X4834143Y-18159095D01*
X4815095Y-18168619D01*
X5015095Y-18292429D02*
X5024619Y-18301952D01*
X5015095Y-18311476D01*
X5005571Y-18301952D01*
X5015095Y-18292429D01*
X5015095Y-18311476D01*
X5215095Y-18311476D02*
X5100810Y-18311476D01*
X5157952Y-18311476D02*
X5157952Y-18111476D01*
X5138905Y-18140048D01*
X5119857Y-18159095D01*
X5100810Y-18168619D01*
X5338905Y-18111476D02*
X5357952Y-18111476D01*
X5377000Y-18121000D01*
X5386524Y-18130524D01*
X5396048Y-18149571D01*
X5405571Y-18187667D01*
X5405571Y-18235286D01*
X5396048Y-18273381D01*
X5386524Y-18292429D01*
X5377000Y-18301952D01*
X5357952Y-18311476D01*
X5338905Y-18311476D01*
X5319857Y-18301952D01*
X5310333Y-18292429D01*
X5300810Y-18273381D01*
X5291286Y-18235286D01*
X5291286Y-18187667D01*
X5300810Y-18149571D01*
X5310333Y-18130524D01*
X5319857Y-18121000D01*
X5338905Y-18111476D01*
X5529381Y-18111476D02*
X5548429Y-18111476D01*
X5567476Y-18121000D01*
X5577000Y-18130524D01*
X5586524Y-18149571D01*
X5596048Y-18187667D01*
X5596048Y-18235286D01*
X5586524Y-18273381D01*
X5577000Y-18292429D01*
X5567476Y-18301952D01*
X5548429Y-18311476D01*
X5529381Y-18311476D01*
X5510333Y-18301952D01*
X5500810Y-18292429D01*
X5491286Y-18273381D01*
X5481762Y-18235286D01*
X5481762Y-18187667D01*
X5491286Y-18149571D01*
X5500810Y-18130524D01*
X5510333Y-18121000D01*
X5529381Y-18111476D01*
X5681762Y-18311476D02*
X5681762Y-18178143D01*
X5681762Y-18197190D02*
X5691286Y-18187667D01*
X5710333Y-18178143D01*
X5738905Y-18178143D01*
X5757952Y-18187667D01*
X5767476Y-18206714D01*
X5767476Y-18311476D01*
X5767476Y-18206714D02*
X5777000Y-18187667D01*
X5796048Y-18178143D01*
X5824619Y-18178143D01*
X5843667Y-18187667D01*
X5853190Y-18206714D01*
X5853190Y-18311476D01*
X5948428Y-18311476D02*
X5948428Y-18178143D01*
X5948428Y-18197190D02*
X5957952Y-18187667D01*
X5977000Y-18178143D01*
X6005571Y-18178143D01*
X6024619Y-18187667D01*
X6034143Y-18206714D01*
X6034143Y-18311476D01*
X6034143Y-18206714D02*
X6043667Y-18187667D01*
X6062714Y-18178143D01*
X6091286Y-18178143D01*
X6110333Y-18187667D01*
X6119857Y-18206714D01*
X6119857Y-18311476D01*
X6510333Y-18101952D02*
X6338905Y-18359095D01*
X6767476Y-18111476D02*
X6786524Y-18111476D01*
X6805571Y-18121000D01*
X6815095Y-18130524D01*
X6824619Y-18149571D01*
X6834143Y-18187667D01*
X6834143Y-18235286D01*
X6824619Y-18273381D01*
X6815095Y-18292429D01*
X6805571Y-18301952D01*
X6786524Y-18311476D01*
X6767476Y-18311476D01*
X6748428Y-18301952D01*
X6738905Y-18292429D01*
X6729381Y-18273381D01*
X6719857Y-18235286D01*
X6719857Y-18187667D01*
X6729381Y-18149571D01*
X6738905Y-18130524D01*
X6748428Y-18121000D01*
X6767476Y-18111476D01*
X6919857Y-18292429D02*
X6929381Y-18301952D01*
X6919857Y-18311476D01*
X6910333Y-18301952D01*
X6919857Y-18292429D01*
X6919857Y-18311476D01*
X7053190Y-18111476D02*
X7072238Y-18111476D01*
X7091286Y-18121000D01*
X7100809Y-18130524D01*
X7110333Y-18149571D01*
X7119857Y-18187667D01*
X7119857Y-18235286D01*
X7110333Y-18273381D01*
X7100809Y-18292429D01*
X7091286Y-18301952D01*
X7072238Y-18311476D01*
X7053190Y-18311476D01*
X7034143Y-18301952D01*
X7024619Y-18292429D01*
X7015095Y-18273381D01*
X7005571Y-18235286D01*
X7005571Y-18187667D01*
X7015095Y-18149571D01*
X7024619Y-18130524D01*
X7034143Y-18121000D01*
X7053190Y-18111476D01*
X7291286Y-18178143D02*
X7291286Y-18311476D01*
X7243667Y-18101952D02*
X7196048Y-18244810D01*
X7319857Y-18244810D01*
X7377000Y-18111476D02*
X7500809Y-18111476D01*
X7434143Y-18187667D01*
X7462714Y-18187667D01*
X7481762Y-18197190D01*
X7491286Y-18206714D01*
X7500809Y-18225762D01*
X7500809Y-18273381D01*
X7491286Y-18292429D01*
X7481762Y-18301952D01*
X7462714Y-18311476D01*
X7405571Y-18311476D01*
X7386524Y-18301952D01*
X7377000Y-18292429D01*
X7567476Y-18111476D02*
X7691286Y-18111476D01*
X7624619Y-18187667D01*
X7653190Y-18187667D01*
X7672238Y-18197190D01*
X7681762Y-18206714D01*
X7691286Y-18225762D01*
X7691286Y-18273381D01*
X7681762Y-18292429D01*
X7672238Y-18301952D01*
X7653190Y-18311476D01*
X7596048Y-18311476D01*
X7577000Y-18301952D01*
X7567476Y-18292429D01*
X7767476Y-18111476D02*
X7767476Y-18149571D01*
X7843667Y-18111476D02*
X7843667Y-18149571D01*
X8138905Y-18387667D02*
X8129381Y-18378143D01*
X8110333Y-18349571D01*
X8100809Y-18330524D01*
X8091286Y-18301952D01*
X8081762Y-18254333D01*
X8081762Y-18216238D01*
X8091286Y-18168619D01*
X8100809Y-18140048D01*
X8110333Y-18121000D01*
X8129381Y-18092429D01*
X8138905Y-18082905D01*
X8196048Y-18111476D02*
X8319857Y-18111476D01*
X8253190Y-18187667D01*
X8281762Y-18187667D01*
X8300809Y-18197190D01*
X8310333Y-18206714D01*
X8319857Y-18225762D01*
X8319857Y-18273381D01*
X8310333Y-18292429D01*
X8300809Y-18301952D01*
X8281762Y-18311476D01*
X8224619Y-18311476D01*
X8205571Y-18301952D01*
X8196048Y-18292429D01*
X8557952Y-18311476D02*
X8557952Y-18111476D01*
X8643667Y-18311476D02*
X8643667Y-18206714D01*
X8634143Y-18187667D01*
X8615095Y-18178143D01*
X8586524Y-18178143D01*
X8567476Y-18187667D01*
X8557952Y-18197190D01*
X8767476Y-18311476D02*
X8748429Y-18301952D01*
X8738905Y-18292429D01*
X8729381Y-18273381D01*
X8729381Y-18216238D01*
X8738905Y-18197190D01*
X8748429Y-18187667D01*
X8767476Y-18178143D01*
X8796048Y-18178143D01*
X8815095Y-18187667D01*
X8824619Y-18197190D01*
X8834143Y-18216238D01*
X8834143Y-18273381D01*
X8824619Y-18292429D01*
X8815095Y-18301952D01*
X8796048Y-18311476D01*
X8767476Y-18311476D01*
X8948429Y-18311476D02*
X8929381Y-18301952D01*
X8919857Y-18282905D01*
X8919857Y-18111476D01*
X9100810Y-18301952D02*
X9081762Y-18311476D01*
X9043667Y-18311476D01*
X9024619Y-18301952D01*
X9015095Y-18282905D01*
X9015095Y-18206714D01*
X9024619Y-18187667D01*
X9043667Y-18178143D01*
X9081762Y-18178143D01*
X9100810Y-18187667D01*
X9110333Y-18206714D01*
X9110333Y-18225762D01*
X9015095Y-18244810D01*
X9186524Y-18301952D02*
X9205571Y-18311476D01*
X9243667Y-18311476D01*
X9262714Y-18301952D01*
X9272238Y-18282905D01*
X9272238Y-18273381D01*
X9262714Y-18254333D01*
X9243667Y-18244810D01*
X9215095Y-18244810D01*
X9196048Y-18235286D01*
X9186524Y-18216238D01*
X9186524Y-18206714D01*
X9196048Y-18187667D01*
X9215095Y-18178143D01*
X9243667Y-18178143D01*
X9262714Y-18187667D01*
X9338905Y-18387667D02*
X9348429Y-18378143D01*
X9367476Y-18349571D01*
X9377000Y-18330524D01*
X9386524Y-18301952D01*
X9396048Y-18254333D01*
X9396048Y-18216238D01*
X9386524Y-18168619D01*
X9377000Y-18140048D01*
X9367476Y-18121000D01*
X9348429Y-18092429D01*
X9338905Y-18082905D01*
X4367000Y-18385000D02*
X4567000Y-18585000D01*
X4567000Y-18385000D02*
X4367000Y-18585000D01*
X4467000Y-18385000D02*
X4467000Y-18585000D01*
X4367000Y-18485000D02*
X4567000Y-18485000D01*
X4815095Y-18394524D02*
X4824619Y-18385000D01*
X4843667Y-18375476D01*
X4891286Y-18375476D01*
X4910333Y-18385000D01*
X4919857Y-18394524D01*
X4929381Y-18413571D01*
X4929381Y-18432619D01*
X4919857Y-18461190D01*
X4805571Y-18575476D01*
X4929381Y-18575476D01*
X5015095Y-18556429D02*
X5024619Y-18565952D01*
X5015095Y-18575476D01*
X5005571Y-18565952D01*
X5015095Y-18556429D01*
X5015095Y-18575476D01*
X5091286Y-18375476D02*
X5224619Y-18375476D01*
X5138905Y-18575476D01*
X5396048Y-18375476D02*
X5300810Y-18375476D01*
X5291286Y-18470714D01*
X5300810Y-18461190D01*
X5319857Y-18451667D01*
X5367476Y-18451667D01*
X5386524Y-18461190D01*
X5396048Y-18470714D01*
X5405571Y-18489762D01*
X5405571Y-18537381D01*
X5396048Y-18556429D01*
X5386524Y-18565952D01*
X5367476Y-18575476D01*
X5319857Y-18575476D01*
X5300810Y-18565952D01*
X5291286Y-18556429D01*
X5529381Y-18375476D02*
X5548429Y-18375476D01*
X5567476Y-18385000D01*
X5577000Y-18394524D01*
X5586524Y-18413571D01*
X5596048Y-18451667D01*
X5596048Y-18499286D01*
X5586524Y-18537381D01*
X5577000Y-18556429D01*
X5567476Y-18565952D01*
X5548429Y-18575476D01*
X5529381Y-18575476D01*
X5510333Y-18565952D01*
X5500810Y-18556429D01*
X5491286Y-18537381D01*
X5481762Y-18499286D01*
X5481762Y-18451667D01*
X5491286Y-18413571D01*
X5500810Y-18394524D01*
X5510333Y-18385000D01*
X5529381Y-18375476D01*
X5681762Y-18575476D02*
X5681762Y-18442143D01*
X5681762Y-18461190D02*
X5691286Y-18451667D01*
X5710333Y-18442143D01*
X5738905Y-18442143D01*
X5757952Y-18451667D01*
X5767476Y-18470714D01*
X5767476Y-18575476D01*
X5767476Y-18470714D02*
X5777000Y-18451667D01*
X5796048Y-18442143D01*
X5824619Y-18442143D01*
X5843667Y-18451667D01*
X5853190Y-18470714D01*
X5853190Y-18575476D01*
X5948428Y-18575476D02*
X5948428Y-18442143D01*
X5948428Y-18461190D02*
X5957952Y-18451667D01*
X5977000Y-18442143D01*
X6005571Y-18442143D01*
X6024619Y-18451667D01*
X6034143Y-18470714D01*
X6034143Y-18575476D01*
X6034143Y-18470714D02*
X6043667Y-18451667D01*
X6062714Y-18442143D01*
X6091286Y-18442143D01*
X6110333Y-18451667D01*
X6119857Y-18470714D01*
X6119857Y-18575476D01*
X6510333Y-18365952D02*
X6338905Y-18623095D01*
X6767476Y-18375476D02*
X6786524Y-18375476D01*
X6805571Y-18385000D01*
X6815095Y-18394524D01*
X6824619Y-18413571D01*
X6834143Y-18451667D01*
X6834143Y-18499286D01*
X6824619Y-18537381D01*
X6815095Y-18556429D01*
X6805571Y-18565952D01*
X6786524Y-18575476D01*
X6767476Y-18575476D01*
X6748428Y-18565952D01*
X6738905Y-18556429D01*
X6729381Y-18537381D01*
X6719857Y-18499286D01*
X6719857Y-18451667D01*
X6729381Y-18413571D01*
X6738905Y-18394524D01*
X6748428Y-18385000D01*
X6767476Y-18375476D01*
X6919857Y-18556429D02*
X6929381Y-18565952D01*
X6919857Y-18575476D01*
X6910333Y-18565952D01*
X6919857Y-18556429D01*
X6919857Y-18575476D01*
X7119857Y-18575476D02*
X7005571Y-18575476D01*
X7062714Y-18575476D02*
X7062714Y-18375476D01*
X7043667Y-18404048D01*
X7024619Y-18423095D01*
X7005571Y-18432619D01*
X7243667Y-18375476D02*
X7262714Y-18375476D01*
X7281762Y-18385000D01*
X7291286Y-18394524D01*
X7300809Y-18413571D01*
X7310333Y-18451667D01*
X7310333Y-18499286D01*
X7300809Y-18537381D01*
X7291286Y-18556429D01*
X7281762Y-18565952D01*
X7262714Y-18575476D01*
X7243667Y-18575476D01*
X7224619Y-18565952D01*
X7215095Y-18556429D01*
X7205571Y-18537381D01*
X7196048Y-18499286D01*
X7196048Y-18451667D01*
X7205571Y-18413571D01*
X7215095Y-18394524D01*
X7224619Y-18385000D01*
X7243667Y-18375476D01*
X7424619Y-18461190D02*
X7405571Y-18451667D01*
X7396048Y-18442143D01*
X7386524Y-18423095D01*
X7386524Y-18413571D01*
X7396048Y-18394524D01*
X7405571Y-18385000D01*
X7424619Y-18375476D01*
X7462714Y-18375476D01*
X7481762Y-18385000D01*
X7491286Y-18394524D01*
X7500809Y-18413571D01*
X7500809Y-18423095D01*
X7491286Y-18442143D01*
X7481762Y-18451667D01*
X7462714Y-18461190D01*
X7424619Y-18461190D01*
X7405571Y-18470714D01*
X7396048Y-18480238D01*
X7386524Y-18499286D01*
X7386524Y-18537381D01*
X7396048Y-18556429D01*
X7405571Y-18565952D01*
X7424619Y-18575476D01*
X7462714Y-18575476D01*
X7481762Y-18565952D01*
X7491286Y-18556429D01*
X7500809Y-18537381D01*
X7500809Y-18499286D01*
X7491286Y-18480238D01*
X7481762Y-18470714D01*
X7462714Y-18461190D01*
X7567476Y-18375476D02*
X7691286Y-18375476D01*
X7624619Y-18451667D01*
X7653190Y-18451667D01*
X7672238Y-18461190D01*
X7681762Y-18470714D01*
X7691286Y-18489762D01*
X7691286Y-18537381D01*
X7681762Y-18556429D01*
X7672238Y-18565952D01*
X7653190Y-18575476D01*
X7596048Y-18575476D01*
X7577000Y-18565952D01*
X7567476Y-18556429D01*
X7767476Y-18375476D02*
X7767476Y-18413571D01*
X7843667Y-18375476D02*
X7843667Y-18413571D01*
X8138905Y-18651667D02*
X8129381Y-18642143D01*
X8110333Y-18613571D01*
X8100809Y-18594524D01*
X8091286Y-18565952D01*
X8081762Y-18518333D01*
X8081762Y-18480238D01*
X8091286Y-18432619D01*
X8100809Y-18404048D01*
X8110333Y-18385000D01*
X8129381Y-18356429D01*
X8138905Y-18346905D01*
X8300809Y-18442143D02*
X8300809Y-18575476D01*
X8253190Y-18365952D02*
X8205571Y-18508810D01*
X8329381Y-18508810D01*
X8557952Y-18575476D02*
X8557952Y-18375476D01*
X8643667Y-18575476D02*
X8643667Y-18470714D01*
X8634143Y-18451667D01*
X8615095Y-18442143D01*
X8586524Y-18442143D01*
X8567476Y-18451667D01*
X8557952Y-18461190D01*
X8767476Y-18575476D02*
X8748429Y-18565952D01*
X8738905Y-18556429D01*
X8729381Y-18537381D01*
X8729381Y-18480238D01*
X8738905Y-18461190D01*
X8748429Y-18451667D01*
X8767476Y-18442143D01*
X8796048Y-18442143D01*
X8815095Y-18451667D01*
X8824619Y-18461190D01*
X8834143Y-18480238D01*
X8834143Y-18537381D01*
X8824619Y-18556429D01*
X8815095Y-18565952D01*
X8796048Y-18575476D01*
X8767476Y-18575476D01*
X8948429Y-18575476D02*
X8929381Y-18565952D01*
X8919857Y-18546905D01*
X8919857Y-18375476D01*
X9100810Y-18565952D02*
X9081762Y-18575476D01*
X9043667Y-18575476D01*
X9024619Y-18565952D01*
X9015095Y-18546905D01*
X9015095Y-18470714D01*
X9024619Y-18451667D01*
X9043667Y-18442143D01*
X9081762Y-18442143D01*
X9100810Y-18451667D01*
X9110333Y-18470714D01*
X9110333Y-18489762D01*
X9015095Y-18508810D01*
X9186524Y-18565952D02*
X9205571Y-18575476D01*
X9243667Y-18575476D01*
X9262714Y-18565952D01*
X9272238Y-18546905D01*
X9272238Y-18537381D01*
X9262714Y-18518333D01*
X9243667Y-18508810D01*
X9215095Y-18508810D01*
X9196048Y-18499286D01*
X9186524Y-18480238D01*
X9186524Y-18470714D01*
X9196048Y-18451667D01*
X9215095Y-18442143D01*
X9243667Y-18442143D01*
X9262714Y-18451667D01*
X9338905Y-18651667D02*
X9348429Y-18642143D01*
X9367476Y-18613571D01*
X9377000Y-18594524D01*
X9386524Y-18565952D01*
X9396048Y-18518333D01*
X9396048Y-18480238D01*
X9386524Y-18432619D01*
X9377000Y-18404048D01*
X9367476Y-18385000D01*
X9348429Y-18356429D01*
X9338905Y-18346905D01*
M02*
