%TF.GenerationSoftware,KiCad,Pcbnew,6.0.8*%
%TF.CreationDate,2022-10-28T14:07:03-07:00*%
%TF.ProjectId,pre-amp52,7072652d-616d-4703-9532-2e6b69636164,rev?*%
%TF.SameCoordinates,Original*%
%TF.FileFunction,Drillmap*%
%TF.FilePolarity,Positive*%
%FSLAX45Y45*%
G04 Gerber Fmt 4.5, Leading zero omitted, Abs format (unit mm)*
G04 Created by KiCad (PCBNEW 6.0.8) date 2022-10-28 14:07:03*
%MOMM*%
%LPD*%
G01*
G04 APERTURE LIST*
%ADD10C,0.100000*%
%ADD11C,0.200000*%
G04 APERTURE END LIST*
D10*
X4572000Y-8382000D02*
X17018000Y-8382000D01*
X17018000Y-8382000D02*
X17018000Y-16256000D01*
X17018000Y-16256000D02*
X4572000Y-16256000D01*
X4572000Y-16256000D02*
X4572000Y-8382000D01*
X16510000Y-16256000D02*
X16510000Y-16256000D01*
X16510000Y-16256000D02*
X16510000Y-16256000D01*
X16510000Y-16256000D02*
X16510000Y-16256000D01*
X16510000Y-16256000D02*
X16510000Y-16256000D01*
D11*
X4824619Y-16571476D02*
X4824619Y-16371476D01*
X4872238Y-16371476D01*
X4900810Y-16381000D01*
X4919857Y-16400048D01*
X4929381Y-16419095D01*
X4938905Y-16457190D01*
X4938905Y-16485762D01*
X4929381Y-16523857D01*
X4919857Y-16542905D01*
X4900810Y-16561952D01*
X4872238Y-16571476D01*
X4824619Y-16571476D01*
X5024619Y-16571476D02*
X5024619Y-16438143D01*
X5024619Y-16476238D02*
X5034143Y-16457190D01*
X5043667Y-16447667D01*
X5062714Y-16438143D01*
X5081762Y-16438143D01*
X5148429Y-16571476D02*
X5148429Y-16438143D01*
X5148429Y-16371476D02*
X5138905Y-16381000D01*
X5148429Y-16390524D01*
X5157952Y-16381000D01*
X5148429Y-16371476D01*
X5148429Y-16390524D01*
X5272238Y-16571476D02*
X5253190Y-16561952D01*
X5243667Y-16542905D01*
X5243667Y-16371476D01*
X5377000Y-16571476D02*
X5357952Y-16561952D01*
X5348429Y-16542905D01*
X5348429Y-16371476D01*
X5605571Y-16571476D02*
X5605571Y-16371476D01*
X5672238Y-16514333D01*
X5738905Y-16371476D01*
X5738905Y-16571476D01*
X5919857Y-16571476D02*
X5919857Y-16466714D01*
X5910333Y-16447667D01*
X5891286Y-16438143D01*
X5853190Y-16438143D01*
X5834143Y-16447667D01*
X5919857Y-16561952D02*
X5900809Y-16571476D01*
X5853190Y-16571476D01*
X5834143Y-16561952D01*
X5824619Y-16542905D01*
X5824619Y-16523857D01*
X5834143Y-16504809D01*
X5853190Y-16495286D01*
X5900809Y-16495286D01*
X5919857Y-16485762D01*
X6015095Y-16438143D02*
X6015095Y-16638143D01*
X6015095Y-16447667D02*
X6034143Y-16438143D01*
X6072238Y-16438143D01*
X6091286Y-16447667D01*
X6100809Y-16457190D01*
X6110333Y-16476238D01*
X6110333Y-16533381D01*
X6100809Y-16552428D01*
X6091286Y-16561952D01*
X6072238Y-16571476D01*
X6034143Y-16571476D01*
X6015095Y-16561952D01*
X6196048Y-16552428D02*
X6205571Y-16561952D01*
X6196048Y-16571476D01*
X6186524Y-16561952D01*
X6196048Y-16552428D01*
X6196048Y-16571476D01*
X6196048Y-16447667D02*
X6205571Y-16457190D01*
X6196048Y-16466714D01*
X6186524Y-16457190D01*
X6196048Y-16447667D01*
X6196048Y-16466714D01*
M02*
